<svg xmlns="http://www.w3.org/2000/svg" xmlns:xlink="http://www.w3.org/1999/xlink" width="500" zoomAndPan="magnify" viewBox="0 0 375 374.999991" height="500" preserveAspectRatio="xMidYMid meet" version="1.0"><defs><g/><clipPath id="c9d204271b"><path d="M 218 201 L 230 201 L 230 210.835938 L 218 210.835938 Z M 218 201 " clip-rule="nonzero"/></clipPath><clipPath id="6fa965a5d7"><path d="M 108 87.085938 L 256 87.085938 L 256 206 L 108 206 Z M 108 87.085938 " clip-rule="nonzero"/></clipPath><clipPath id="02f72681b2"><path d="M 256 128 L 267.5625 128 L 267.5625 138 L 256 138 Z M 256 128 " clip-rule="nonzero"/></clipPath></defs><g clip-path="url(#c9d204271b)"><path fill="#7c2714" d="M 228.578125 205.535156 L 222.566406 201.628906 C 222.242188 201.417969 221.890625 201.28125 221.511719 201.214844 C 221.132812 201.148438 220.757812 201.160156 220.382812 201.246094 C 220.007812 201.335938 219.664062 201.492188 219.355469 201.722656 C 219.042969 201.949219 218.792969 202.230469 218.59375 202.5625 L 218.558594 202.621094 C 218.375 202.933594 218.257812 203.269531 218.203125 203.628906 C 218.148438 203.988281 218.164062 204.34375 218.25 204.699219 C 218.332031 205.050781 218.476562 205.375 218.6875 205.671875 C 218.898438 205.96875 219.152344 206.214844 219.457031 206.414062 L 225.46875 210.320312 C 225.9375 210.625 226.453125 210.773438 227.011719 210.773438 C 227.230469 210.773438 227.449219 210.75 227.660156 210.699219 C 228.441406 210.511719 229.039062 210.070312 229.445312 209.378906 L 229.476562 209.328125 C 229.660156 209.011719 229.777344 208.675781 229.832031 208.316406 C 229.886719 207.960938 229.871094 207.601562 229.785156 207.25 C 229.703125 206.898438 229.554688 206.570312 229.347656 206.277344 C 229.136719 205.980469 228.882812 205.730469 228.578125 205.535156 Z M 228.578125 205.535156 " fill-opacity="1" fill-rule="nonzero"/></g><path fill="#7c2714" d="M 241.898438 190.488281 L 223.449219 178.203125 C 223.125 177.988281 222.769531 177.847656 222.390625 177.777344 C 222.007812 177.707031 221.625 177.71875 221.25 177.804688 C 220.871094 177.894531 220.523438 178.050781 220.210938 178.28125 C 219.898438 178.511719 219.644531 178.796875 219.449219 179.132812 L 219.417969 179.179688 C 219.238281 179.492188 219.121094 179.824219 219.066406 180.179688 C 219.011719 180.535156 219.027344 180.890625 219.109375 181.238281 C 219.1875 181.589844 219.332031 181.914062 219.535156 182.210938 C 219.742188 182.507812 219.992188 182.753906 220.292969 182.957031 L 238.742188 195.234375 C 239.21875 195.550781 239.738281 195.707031 240.308594 195.707031 C 240.519531 195.707031 240.730469 195.683594 240.9375 195.636719 C 241.730469 195.453125 242.332031 195.007812 242.742188 194.304688 L 242.769531 194.261719 C 242.953125 193.949219 243.070312 193.617188 243.121094 193.261719 C 243.175781 192.90625 243.164062 192.550781 243.082031 192.199219 C 243 191.851562 242.859375 191.527344 242.652344 191.230469 C 242.449219 190.933594 242.199219 190.6875 241.898438 190.488281 Z M 241.898438 190.488281 " fill-opacity="1" fill-rule="nonzero"/><g clip-path="url(#6fa965a5d7)"><path fill="#7c2714" d="M 254.175781 163.746094 C 250.660156 161.644531 239.136719 154.773438 232.085938 150.757812 C 232.765625 148.867188 233.410156 146.824219 234.035156 144.574219 C 235.828125 138.273438 237.011719 131.855469 237.585938 125.332031 C 237.699219 123.96875 237.808594 122.464844 237.839844 120.917969 L 247.695312 127.292969 C 248.019531 127.5 248.371094 127.636719 248.75 127.703125 C 249.128906 127.769531 249.503906 127.757812 249.878906 127.667969 C 250.253906 127.578125 250.59375 127.417969 250.902344 127.191406 C 251.210938 126.960938 251.464844 126.679688 251.660156 126.347656 L 251.691406 126.292969 C 251.875 125.980469 251.996094 125.644531 252.046875 125.285156 C 252.101562 124.925781 252.085938 124.570312 252.003906 124.214844 C 251.917969 123.863281 251.773438 123.539062 251.5625 123.242188 C 251.351562 122.945312 251.09375 122.699219 250.789062 122.503906 L 237.121094 113.660156 C 236.605469 111.574219 235.691406 109.679688 234.386719 107.972656 C 230.964844 103.566406 225.191406 102.179688 220.023438 104.507812 C 217.324219 105.726562 215.144531 107.746094 214.050781 110.0625 C 213.078125 109.855469 212.09375 109.71875 211.101562 109.652344 L 216.046875 104.171875 C 216.878906 103.246094 217.703125 102.324219 218.539062 101.402344 C 218.714844 101.207031 218.914062 101.003906 219.117188 100.796875 C 219.886719 100.011719 220.761719 99.117188 221.207031 97.933594 C 222.691406 93.960938 218.5 91.941406 216.925781 91.183594 C 216.390625 90.921875 215.84375 90.644531 215.300781 90.351562 C 212.882812 89.132812 210.191406 87.753906 207.414062 87.472656 C 204.484375 87.175781 201.585938 88.378906 199.027344 89.425781 C 198.402344 89.6875 197.8125 89.929688 197.242188 90.144531 C 194.414062 91.210938 190.695312 92.660156 187.039062 94.375 C 184.429688 95.660156 181.890625 97.078125 179.429688 98.628906 C 175.726562 100.867188 172.230469 102.984375 168.335938 104.230469 C 168.0625 104.3125 167.8125 104.4375 167.574219 104.59375 C 166.292969 104.421875 165.050781 104.097656 163.847656 103.617188 C 162.972656 103.242188 162.128906 102.808594 161.3125 102.316406 C 159.535156 101.296875 157.515625 100.140625 155.070312 100.101562 C 153.339844 100.070312 151.753906 100.714844 150.363281 101.28125 C 149.09375 101.796875 147.890625 102.285156 146.785156 102.195312 C 146.332031 102.160156 145.847656 101.871094 145.285156 101.515625 C 144.515625 100.992188 143.675781 100.636719 142.765625 100.445312 C 141.359375 100.203125 140.019531 100.484375 138.835938 100.738281 C 138.28125 100.855469 137.757812 100.964844 137.269531 101.015625 C 134.167969 101.34375 130.890625 100.730469 127.722656 100.144531 C 127 100.011719 126.28125 99.878906 125.570312 99.757812 L 113.5625 97.703125 C 113.46875 97.65625 113.371094 97.613281 113.269531 97.574219 C 112.839844 97.363281 112.386719 97.261719 111.910156 97.265625 C 111.433594 97.269531 110.980469 97.378906 110.554688 97.597656 C 110.101562 97.820312 109.738281 98.144531 109.457031 98.5625 C 109.175781 98.980469 109.019531 99.441406 108.984375 99.945312 C 108.722656 103.34375 108.449219 106.742188 108.171875 110.136719 C 107.898438 113.414062 107.796875 116.394531 109.261719 119.710938 C 109.449219 120.140625 109.652344 120.566406 109.847656 120.992188 C 110.347656 121.964844 110.753906 122.976562 111.074219 124.023438 C 111.4375 125.574219 111.65625 127.144531 111.722656 128.738281 L 111.765625 129.304688 C 111.96875 132.0625 112.195312 135.1875 113.609375 137.917969 C 115.078125 140.753906 117.960938 141.9375 120.617188 140.792969 C 123.925781 139.367188 124.542969 136.125 125.035156 133.515625 L 125.054688 133.414062 C 125.3125 132.0625 125.769531 131.433594 125.90625 131.363281 C 126.117188 131.410156 126.304688 131.511719 126.460938 131.660156 C 127.371094 132.394531 128.234375 133.179688 129.050781 134.015625 C 129.484375 134.445312 129.917969 134.871094 130.351562 135.277344 C 130.695312 135.601562 131.042969 135.929688 131.394531 136.253906 C 133.277344 137.972656 135.21875 139.746094 136.40625 141.84375 C 137.195312 143.246094 137.25 144.445312 137.335938 146.269531 L 137.335938 146.492188 C 137.414062 148.214844 137.917969 149.554688 138.875 150.578125 C 140.261719 152.074219 142.128906 152.714844 144.480469 152.484375 C 143.542969 160.949219 142.699219 168.71875 141.941406 176.660156 C 141.617188 180.179688 141.332031 183.402344 141.097656 186.515625 C 140.957031 188.417969 140.84375 190.097656 140.75 191.667969 C 140.75 191.871094 140.71875 192.078125 140.699219 192.289062 C 140.601562 193.386719 140.480469 194.75 141.121094 196.011719 C 141.761719 197.269531 142.863281 197.847656 143.75 198.320312 L 144.003906 198.457031 C 145.269531 199.148438 146.566406 199.820312 147.824219 200.464844 L 148.425781 200.773438 C 151.203125 202.203125 154.117188 203.648438 157.332031 205.207031 C 157.75 205.410156 158.191406 205.511719 158.65625 205.515625 C 159.128906 205.511719 159.574219 205.398438 159.988281 205.175781 C 160.40625 204.957031 160.75 204.652344 161.023438 204.265625 C 167.261719 195.917969 173.28125 187.21875 178.921875 178.390625 L 179.429688 178.839844 C 179.503906 178.898438 179.578125 178.960938 179.65625 179.015625 C 179.898438 180.28125 180.285156 181.503906 180.808594 182.679688 C 181.320312 183.808594 182.003906 184.824219 182.855469 185.726562 C 183.707031 186.628906 184.683594 187.367188 185.785156 187.941406 C 185.886719 188.023438 185.996094 188.097656 186.109375 188.164062 C 192.6875 192.152344 199.675781 196.339844 206.875 200.621094 C 207.292969 200.882812 207.75 201.023438 208.246094 201.035156 C 208.742188 201.046875 209.207031 200.929688 209.640625 200.683594 C 210.101562 200.421875 210.46875 200.0625 210.738281 199.605469 C 211.007812 199.148438 211.148438 198.652344 211.160156 198.125 C 211.164062 197.625 211.042969 197.160156 210.796875 196.726562 C 210.550781 196.292969 210.210938 195.953125 209.777344 195.703125 C 205.605469 193.226562 201.4375 190.726562 197.652344 188.457031 C 198.640625 188.0625 199.585938 187.574219 200.480469 186.996094 C 200.601562 186.949219 200.71875 186.898438 200.835938 186.835938 C 205.582031 184.324219 209.554688 180.484375 213.398438 176.773438 C 213.992188 176.203125 214.578125 175.636719 215.164062 175.078125 C 220.371094 170.132812 223.933594 166.015625 226.757812 161.71875 C 227.9375 159.914062 228.980469 158.035156 229.894531 156.078125 C 236.859375 160.058594 247.851562 166.617188 251.242188 168.644531 C 251.566406 168.835938 251.914062 168.960938 252.289062 169.011719 C 252.660156 169.066406 253.03125 169.046875 253.394531 168.949219 C 253.757812 168.855469 254.09375 168.695312 254.390625 168.46875 C 254.691406 168.242188 254.9375 167.964844 255.128906 167.636719 L 255.15625 167.59375 C 255.34375 167.269531 255.460938 166.925781 255.515625 166.558594 C 255.566406 166.191406 255.542969 165.828125 255.453125 165.46875 C 255.359375 165.109375 255.203125 164.777344 254.984375 164.480469 C 254.761719 164.183594 254.492188 163.9375 254.175781 163.746094 Z M 254.175781 163.746094 " fill-opacity="1" fill-rule="nonzero"/></g><path fill="#7c2714" d="M 254.542969 145.847656 L 243.640625 139.078125 C 243.324219 138.882812 242.980469 138.757812 242.613281 138.699219 C 242.246094 138.640625 241.878906 138.652344 241.519531 138.738281 C 241.15625 138.824219 240.824219 138.976562 240.519531 139.191406 C 240.21875 139.410156 239.96875 139.675781 239.773438 139.992188 C 239.574219 140.308594 239.445312 140.648438 239.382812 141.015625 C 239.320312 141.382812 239.332031 141.746094 239.414062 142.109375 C 239.496094 142.472656 239.644531 142.808594 239.859375 143.113281 C 240.074219 143.414062 240.339844 143.667969 240.652344 143.867188 L 251.519531 150.683594 C 251.972656 150.972656 252.46875 151.117188 253.007812 151.117188 C 253.238281 151.117188 253.464844 151.085938 253.6875 151.03125 C 254.460938 150.847656 255.046875 150.414062 255.449219 149.730469 L 255.480469 149.675781 C 255.671875 149.359375 255.792969 149.019531 255.851562 148.652344 C 255.90625 148.289062 255.886719 147.925781 255.800781 147.566406 C 255.710938 147.210938 255.558594 146.882812 255.339844 146.582031 C 255.125 146.285156 254.855469 146.039062 254.542969 145.847656 Z M 254.542969 145.847656 " fill-opacity="1" fill-rule="nonzero"/><g clip-path="url(#02f72681b2)"><path fill="#7c2714" d="M 267.464844 134.152344 C 267.421875 133.726562 267.289062 133.332031 267.066406 132.96875 C 266.84375 132.605469 266.554688 132.308594 266.195312 132.078125 L 261.332031 128.921875 C 261.011719 128.710938 260.660156 128.574219 260.28125 128.507812 C 259.902344 128.441406 259.523438 128.453125 259.148438 128.539062 C 258.777344 128.628906 258.433594 128.785156 258.125 129.015625 C 257.8125 129.242188 257.5625 129.523438 257.367188 129.855469 L 257.335938 129.90625 C 257.148438 130.222656 257.03125 130.558594 256.976562 130.917969 C 256.921875 131.28125 256.9375 131.636719 257.023438 131.992188 C 257.109375 132.347656 257.257812 132.671875 257.46875 132.96875 C 257.679688 133.265625 257.941406 133.511719 258.25 133.707031 L 263.128906 136.832031 C 263.59375 137.125 264.097656 137.273438 264.644531 137.273438 C 265.433594 137.273438 266.101562 136.996094 266.65625 136.441406 C 266.957031 136.140625 267.179688 135.789062 267.320312 135.386719 C 267.464844 134.988281 267.511719 134.574219 267.464844 134.152344 Z M 267.464844 134.152344 " fill-opacity="1" fill-rule="nonzero"/></g><path fill="#ffee9c" d="M 205.789062 111.628906 C 207.207031 110.074219 208.464844 108.335938 209.785156 106.703125 C 212.140625 103.796875 214.949219 100.949219 216.976562 97.800781 C 218.34375 95.671875 216.441406 94.292969 214.753906 93.167969 C 212.25 91.507812 209.394531 89.914062 206.292969 90.238281 C 203.1875 90.566406 200.050781 92.539062 197.246094 93.820312 L 172.046875 105.25 C 171.855469 105.328125 171.746094 105.46875 171.722656 105.675781 C 170.960938 105.707031 170.988281 106.933594 171.800781 106.976562 C 174.433594 107.160156 177.089844 107.265625 179.726562 107.472656 C 177.722656 107.53125 175.730469 107.691406 173.742188 107.949219 C 171.464844 108.226562 169.1875 108.554688 166.910156 108.390625 C 164.117188 108.1875 161.914062 106.992188 159.53125 105.648438 C 157.019531 104.230469 152.101562 102.132812 149.769531 104.996094 C 146.683594 103.742188 141.480469 103.695312 140.027344 103.695312 C 136.1875 103.722656 132.328125 104.125 128.488281 103.742188 C 123.894531 103.28125 119.5625 101.523438 115.320312 99.8125 C 114.84375 99.621094 114.375 100.179688 114.507812 100.621094 C 114.886719 101.839844 115.429688 102.972656 116.144531 104.027344 C 115.234375 103.078125 114.316406 102.144531 113.40625 101.21875 C 113.394531 101.207031 113.378906 101.195312 113.363281 101.183594 L 113.511719 100.9375 C 113.960938 100.21875 112.824219 99.554688 112.375 100.289062 C 109.171875 105.367188 109.828125 111.441406 111.261719 117 C 112.125 120.351562 113.214844 123.640625 113.773438 127.0625 C 114.234375 129.957031 114.289062 132.984375 115.515625 135.699219 C 116.238281 137.296875 117.511719 138.65625 119.371094 137.765625 C 121.429688 136.792969 122.011719 134.203125 122.929688 132.332031 C 123.667969 130.824219 124.578125 129.457031 126.398438 129.386719 C 127.296875 129.371094 128.128906 129.609375 128.882812 130.097656 C 129.613281 131.335938 130.597656 132.3125 131.839844 133.027344 C 132.035156 133.148438 132.238281 133.265625 132.441406 133.378906 C 134.46875 135.507812 136.265625 137.8125 137.832031 140.296875 C 139.257812 142.621094 142.265625 152.792969 146.765625 149.320312 C 147.742188 150.621094 147.625 152.324219 147.484375 153.910156 C 147.296875 156.046875 147.046875 158.1875 146.832031 160.320312 L 145.613281 172.289062 C 145.179688 176.421875 144.757812 180.554688 144.351562 184.6875 C 144.148438 186.679688 143.941406 188.675781 143.738281 190.671875 C 143.625 191.789062 143.210938 193.277344 143.855469 194.320312 C 144.546875 195.425781 146.238281 195.902344 147.324219 196.46875 L 152.992188 199.425781 C 155.273438 200.609375 157.195312 202.269531 159.40625 200.289062 C 161.863281 198.089844 163.964844 195.292969 165.714844 192.515625 C 167.71875 189.332031 175.859375 176.75 178.261719 173.722656 C 179.253906 172.5 180.042969 171.160156 180.625 169.703125 C 181.511719 167.421875 185.472656 163.574219 185.597656 163.457031 C 187.875 164.183594 190.300781 164.238281 192.472656 163.105469 C 193.859375 162.382812 195.117188 161.152344 195.402344 159.554688 C 195.570312 158.65625 194.46875 156.253906 194.257812 155.804688 C 193.566406 154.351562 193.859375 153.308594 194.597656 151.988281 C 195.785156 149.867188 198.152344 147.023438 200.582031 146.351562 C 203.351562 145.589844 205.265625 148.0625 207.878906 148.1875 C 209.433594 148.261719 210.519531 147.410156 211.226562 146.078125 C 212.484375 143.71875 213.144531 140.839844 214.027344 138.324219 C 214.855469 135.96875 215.300781 133.710938 214.574219 131.898438 C 215.320312 129.179688 215.773438 126.414062 215.929688 123.597656 C 216.0625 121.097656 216.355469 117.574219 215.421875 115.183594 C 214.773438 113.515625 212.703125 113.484375 211.167969 113.273438 C 208.980469 112.976562 206.777344 112.890625 204.578125 112.742188 C 205.023438 112.417969 205.425781 112.042969 205.789062 111.628906 Z M 143.074219 115.773438 C 142.492188 114.753906 142.128906 113.933594 142.640625 112.84375 C 143.179688 111.683594 144.222656 111.738281 145.421875 111.453125 C 146.070312 111.296875 146.941406 111.160156 147.839844 110.953125 C 147.761719 111.332031 147.683594 111.695312 147.589844 112.039062 C 146.996094 114.292969 146.402344 116.550781 145.808594 118.816406 C 144.707031 117.976562 143.792969 116.960938 143.074219 115.773438 Z M 174.140625 124.886719 C 175.03125 129.941406 172.839844 136.144531 167.957031 138.386719 C 163.636719 140.367188 162.75 134.261719 160.328125 132.242188 C 159.871094 131.890625 159.355469 131.722656 158.777344 131.738281 C 158.742188 130.980469 158.605469 130.238281 158.367188 129.515625 C 158 128.441406 157.457031 127.464844 156.738281 126.585938 C 156.992188 125.726562 157.039062 124.75 157.289062 123.949219 C 158.195312 121.152344 160.726562 118.347656 163.996094 119.042969 C 167.515625 119.777344 168.4375 124.324219 172.25 124.882812 C 172.878906 124.96875 173.507812 124.976562 174.140625 124.902344 Z M 182.078125 144 C 182.339844 142.976562 182.8125 142.0625 183.503906 141.261719 C 183.914062 141.988281 184.40625 142.652344 184.984375 143.253906 C 186.445312 144.796875 188.519531 147.671875 184.757812 148.652344 C 183.84375 148.890625 182.839844 148.757812 181.878906 148.796875 C 181.910156 147.207031 181.714844 145.570312 182.078125 144.015625 Z M 186.832031 127.136719 C 186.164062 125.746094 185.648438 124.300781 185.277344 122.804688 C 188.648438 116.488281 197.761719 117.535156 203.058594 121.277344 C 204.765625 122.480469 205.738281 123.65625 206.078125 125.734375 C 206.183594 126.609375 206.335938 127.480469 206.535156 128.339844 C 205.863281 128.808594 205.664062 129.746094 205.261719 130.40625 C 204.363281 131.871094 202.90625 132.851562 201.480469 133.746094 C 199.730469 134.851562 197.757812 136.210938 195.585938 135.265625 C 194.339844 134.722656 193.34375 133.609375 192.109375 132.984375 C 191.011719 132.441406 189.859375 132.054688 188.648438 131.835938 C 188.324219 130.210938 187.539062 128.640625 186.832031 127.136719 Z M 186.832031 127.136719 " fill-opacity="1" fill-rule="nonzero"/><path fill="#ffc76c" d="M 232.496094 110.441406 C 230.238281 107.1875 226.351562 105.167969 222.378906 106.132812 C 217.714844 107.28125 216.074219 111.921875 215.972656 116.269531 C 215.90625 119.078125 216.296875 121.875 216.199219 124.6875 C 216.109375 127.515625 215.742188 130.308594 215.101562 133.0625 C 212.328125 144.992188 204.6875 155.570312 194.089844 161.757812 C 194.035156 161.792969 194.011719 161.847656 194.019531 161.914062 C 194.023438 161.980469 194.058594 162.027344 194.121094 162.050781 L 193.734375 163.117188 C 193.625 163.089844 193.554688 163.128906 193.527344 163.234375 C 193.5 163.34375 193.539062 163.414062 193.644531 163.441406 C 197.628906 164.628906 201.316406 166.109375 203 170.21875 C 204.28125 173.34375 204.273438 176.828125 204.222656 180.148438 C 204.226562 180.257812 204.28125 180.3125 204.386719 180.316406 C 206.414062 180.195312 208.472656 178.285156 210.039062 177.132812 C 212.109375 175.609375 214.054688 173.9375 215.875 172.125 C 219.523438 168.472656 222.636719 164.40625 225.210938 159.929688 C 231.101562 149.753906 233.960938 138.070312 234.777344 126.40625 C 235.128906 121.136719 235.65625 115.019531 232.496094 110.441406 Z M 232.496094 110.441406 " fill-opacity="1" fill-rule="nonzero"/><path fill="#ffc76c" d="M 203.148438 171.136719 C 202.226562 168.503906 200.515625 166.441406 197.941406 165.277344 C 196.511719 164.675781 195.03125 164.261719 193.496094 164.042969 C 191.90625 163.769531 188.308594 163.9375 187.539062 162.304688 C 187.453125 162.128906 187.210938 162.261719 187.246094 162.433594 L 186.988281 162.503906 C 186.972656 162.445312 186.933594 162.40625 186.875 162.390625 C 186.8125 162.375 186.761719 162.386719 186.71875 162.429688 C 184.4375 164.792969 183.464844 167.824219 182.984375 171.015625 C 182.507812 174.210938 182.125 177.785156 183.203125 180.90625 C 184.019531 183.273438 185.757812 185.425781 188.253906 186.113281 C 191.535156 187.003906 195.085938 185.480469 198.160156 184.507812 C 200.566406 183.75 202.886719 183 203.761719 180.398438 C 204.714844 177.589844 204.101562 173.863281 203.148438 171.136719 Z M 203.148438 171.136719 " fill-opacity="1" fill-rule="nonzero"/><path fill="#b7391c" d="M 172.515625 124.980469 C 170.734375 123.421875 168.472656 121.566406 166.3125 120.589844 C 163.890625 119.496094 161.453125 120.617188 159.261719 121.722656 C 159.183594 121.757812 159.160156 121.816406 159.1875 121.898438 L 158.796875 121.980469 C 158.761719 121.851562 158.570312 121.777344 158.503906 121.929688 C 157.597656 123.945312 156.875 126.582031 157.570312 128.765625 C 157.765625 129.460938 158.171875 130.003906 158.785156 130.390625 C 160.167969 131.382812 161.449219 132.105469 162.480469 133.511719 C 163.558594 134.992188 163.78125 137.609375 165.8125 138.167969 C 167.503906 138.636719 169.035156 137.582031 170.105469 136.371094 C 171.773438 134.417969 173.046875 132.234375 173.917969 129.820312 C 174.652344 127.789062 174.136719 126.394531 172.515625 124.980469 Z M 172.515625 124.980469 " fill-opacity="1" fill-rule="nonzero"/><path fill="#b7391c" d="M 202.378906 121.511719 C 199.414062 120.316406 195.945312 119.292969 192.714844 119.507812 C 189.808594 119.699219 187.304688 121.234375 184.761719 122.519531 C 184.574219 122.613281 184.738281 122.894531 184.925781 122.800781 L 185.433594 122.542969 L 185.585938 122.507812 C 184.691406 123.320312 185.121094 124.550781 185.84375 125.4375 C 186.636719 126.414062 187.398438 127.128906 187.761719 128.4375 C 187.914062 128.984375 187.949219 129.558594 188.085938 130.109375 C 188.296875 131 188.574219 131.871094 189.351562 132.433594 C 190.328125 133.144531 191.628906 132.925781 192.730469 133.1875 C 194.144531 133.511719 195.335938 134.488281 196.734375 134.816406 C 198.921875 135.300781 200.433594 133.839844 201.742188 132.269531 C 204.234375 129.296875 207.507812 123.582031 202.378906 121.511719 Z M 202.378906 121.511719 " fill-opacity="1" fill-rule="nonzero"/><path fill="#b7391c" d="M 207.691406 147.785156 C 206.476562 146.78125 204.8125 145.445312 203.167969 145.320312 C 201.523438 145.191406 200.425781 146.835938 199.34375 147.859375 L 195.871094 151.183594 C 195.335938 151.691406 194.507812 152.265625 194.199219 152.988281 C 193.570312 154.464844 195.125 156.039062 195.382812 157.460938 C 195.675781 159.085938 195.960938 161.507812 197.84375 159.679688 C 199.109375 158.449219 200.140625 156.976562 201.378906 155.707031 L 207.640625 149.304688 C 207.6875 149.253906 207.699219 149.195312 207.671875 149.128906 C 207.648438 149.0625 207.601562 149.027344 207.53125 149.023438 L 207.582031 148.046875 C 207.699219 148.058594 207.820312 147.894531 207.691406 147.785156 Z M 207.691406 147.785156 " fill-opacity="1" fill-rule="nonzero"/><path fill="#00bf52" d="M 146.734375 111.3125 C 145.246094 111.542969 143.8125 111.949219 142.425781 112.53125 C 142.347656 112.5625 142.28125 112.605469 142.222656 112.664062 C 141.851562 112.273438 141.039062 112.410156 141.082031 113.078125 C 141.15625 114.234375 142.203125 114.824219 143.035156 115.507812 L 144.453125 116.722656 C 144.742188 116.957031 145.019531 117.253906 145.414062 117.273438 C 146.285156 117.316406 146.566406 116.21875 146.808594 115.574219 C 147.234375 114.40625 147.480469 113.199219 147.539062 111.953125 C 147.539062 111.851562 147.515625 111.757812 147.472656 111.667969 C 147.425781 111.578125 147.367188 111.503906 147.289062 111.441406 C 147.210938 111.378906 147.121094 111.335938 147.023438 111.3125 C 146.925781 111.292969 146.832031 111.289062 146.734375 111.3125 Z M 146.734375 111.3125 " fill-opacity="1" fill-rule="nonzero"/><path fill="#00bf52" d="M 186.730469 146.089844 C 186.472656 144.710938 185.0625 143.222656 184.144531 142.199219 L 184.167969 142.074219 C 184.351562 141.246094 183.082031 140.894531 182.898438 141.726562 L 182.25 144.734375 C 182.09375 145.441406 181.808594 146.261719 181.972656 147.011719 C 182.261719 148.3125 183.648438 148.59375 184.773438 148.3125 C 185.808594 148.050781 186.957031 147.316406 186.730469 146.089844 Z M 186.730469 146.089844 " fill-opacity="1" fill-rule="nonzero"/><path fill="#f9ab43" d="M 204.464844 175.421875 C 204.277344 175 203.726562 175.050781 203.429688 175.289062 C 200.277344 177.863281 195.664062 176.542969 192.59375 174.507812 C 189.015625 172.140625 186.882812 168.105469 187.625 163.789062 C 187.769531 162.960938 186.5 162.605469 186.355469 163.4375 C 186.355469 163.457031 186.355469 163.472656 186.355469 163.484375 L 185.847656 163.382812 C 186.058594 162.613281 184.835938 162.292969 184.570312 163.078125 C 182.835938 168.050781 182.210938 173.160156 182.695312 178.402344 C 183.066406 182.09375 184.546875 186.140625 188.492188 187.210938 C 192.234375 188.222656 196.347656 186.589844 199.273438 184.296875 C 201.402344 182.605469 205.851562 178.5 204.464844 175.421875 Z M 204.464844 175.421875 " fill-opacity="1" fill-rule="nonzero"/><path fill="#f9ab43" d="M 234.597656 118.023438 C 233.914062 114.570312 232.222656 111.53125 230.472656 108.523438 C 230.402344 108.386719 230.296875 108.289062 230.160156 108.230469 C 230.019531 108.167969 229.878906 108.15625 229.730469 108.195312 C 229.582031 108.234375 229.464844 108.316406 229.375 108.4375 C 229.285156 108.558594 229.242188 108.695312 229.246094 108.847656 C 230.011719 129.863281 225.730469 153.324219 208.570312 167.304688 C 207.070312 168.53125 205.460938 169.585938 203.886719 170.703125 C 203.792969 170.679688 203.703125 170.679688 203.609375 170.699219 C 203.515625 170.722656 203.433594 170.761719 203.363281 170.824219 C 203.292969 170.886719 203.238281 170.960938 203.203125 171.050781 C 203.167969 171.140625 203.15625 171.230469 203.167969 171.324219 C 203.429688 174.386719 203.6875 177.453125 203.945312 180.515625 C 203.953125 180.804688 204.089844 181.003906 204.355469 181.113281 C 204.621094 181.222656 204.859375 181.179688 205.066406 180.984375 C 215.960938 172.222656 224.867188 161.339844 230.203125 148.332031 C 232.898438 141.867188 234.496094 135.140625 235 128.152344 C 235.222656 124.78125 235.246094 121.324219 234.597656 118.023438 Z M 234.597656 118.023438 " fill-opacity="1" fill-rule="nonzero"/><path fill="#f9ce64" d="M 212.46875 92.773438 C 212.414062 92.765625 212.363281 92.78125 212.324219 92.820312 C 212.1875 92.75 212 92.890625 212.101562 93.039062 C 213.726562 95.25 210.324219 97.882812 209.042969 99.261719 L 205.179688 103.410156 L 201.621094 107.238281 C 200.0625 108.910156 198.476562 111.042969 195.980469 111.089844 C 195.882812 111.09375 195.828125 111.140625 195.816406 111.234375 C 195.804688 111.328125 195.84375 111.390625 195.9375 111.414062 C 198.316406 112.121094 201.792969 113.953125 204.171875 112.417969 C 205.800781 111.371094 207.054688 109.382812 208.3125 107.949219 L 212.542969 103.15625 L 216.773438 98.359375 C 217.203125 97.867188 218.421875 96.925781 218.359375 96.109375 C 218.1875 94.082031 213.949219 92.992188 212.46875 92.773438 Z M 212.46875 92.773438 " fill-opacity="1" fill-rule="nonzero"/><path fill="#f9ce64" d="M 183.785156 164.757812 C 185.128906 161.796875 182.132812 158.898438 180.074219 157.140625 C 178.855469 156.054688 177.453125 155.320312 175.863281 154.945312 C 173.65625 154.445312 171.578125 155.109375 169.375 155.109375 C 163.5 155.109375 164.234375 147.996094 160.957031 144.742188 C 158.109375 141.914062 154.015625 140.539062 150.792969 138.175781 C 148.789062 136.703125 146.945312 135.050781 145.261719 133.21875 C 143.984375 131.828125 142.769531 129.601562 140.863281 128.984375 C 140.367188 128.835938 139.859375 128.804688 139.34375 128.886719 C 138.832031 128.972656 138.363281 129.167969 137.9375 129.46875 C 137.304688 129.875 136.726562 130.34375 136.203125 130.878906 C 135.761719 131.109375 135.367188 131.394531 135.011719 131.742188 C 134.003906 131.960938 133.53125 132.90625 133.835938 133.972656 C 134.121094 134.949219 135.015625 135.675781 135.691406 136.394531 C 136.796875 137.53125 137.773438 138.769531 138.621094 140.109375 C 139.453125 141.433594 140.015625 142.863281 140.308594 144.402344 C 140.511719 145.554688 140.382812 146.863281 140.828125 147.980469 C 141.425781 149.476562 142.683594 149.90625 144.203125 149.503906 C 145.855469 149.070312 147.457031 148.253906 147.785156 146.492188 C 148.007812 145.320312 147.957031 144 148.03125 142.816406 C 148.058594 142.449219 148.136719 142.003906 148.175781 141.558594 C 149.910156 142.644531 151.734375 143.722656 153.199219 145.082031 C 154.921875 146.679688 155.25 148.863281 156.453125 150.769531 C 157.363281 152.210938 158.625 153.441406 159.746094 154.714844 C 160.460938 155.53125 161.171875 156.394531 161.960938 157.160156 C 161.960938 157.238281 162.039062 157.335938 162.128906 157.324219 C 162.683594 157.855469 163.292969 158.3125 163.964844 158.691406 C 164.757812 159.085938 165.582031 159.398438 166.441406 159.628906 C 168.414062 160.277344 170.117188 160.820312 170.070312 163.085938 C 170.035156 164.671875 169.160156 164.820312 168.789062 166.109375 C 168.785156 166.140625 168.777344 166.171875 168.765625 166.199219 C 166.226562 169.335938 163.777344 172.542969 161.414062 175.828125 C 160.082031 177.695312 158.78125 179.578125 157.511719 181.484375 C 156.207031 183.4375 155.070312 185.695312 153.496094 187.457031 C 152.550781 188.507812 150.765625 188.867188 150.027344 190.035156 C 149.824219 190.359375 149.800781 191.835938 149.773438 192.191406 C 149.679688 193.402344 148.992188 194.085938 148.320312 194.992188 C 148.171875 195.195312 148.046875 195.410156 147.953125 195.644531 C 147.78125 195.898438 147.75 196.167969 147.859375 196.457031 C 148.101562 197.523438 149.894531 198.035156 151.261719 198.832031 C 152.992188 199.84375 154.980469 201.496094 156.894531 202.085938 C 158.195312 202.484375 158.660156 202.132812 159.519531 201.132812 C 162.425781 197.742188 165.125 194.148438 167.726562 190.523438 C 170.695312 186.382812 173.460938 182.109375 176.113281 177.761719 C 177.53125 175.433594 178.964844 173.097656 180.773438 171.046875 C 181.484375 170.238281 183.25 169.234375 182.761719 167.988281 C 182.703125 167.824219 183.394531 165.609375 183.785156 164.757812 Z M 183.785156 164.757812 " fill-opacity="1" fill-rule="nonzero"/><path fill="#f9ce64" d="M 130.0625 127.933594 C 129.78125 124.960938 128.910156 121.917969 128.035156 119.074219 C 127.199219 116.351562 126.273438 113.542969 124.78125 111.082031 C 122.074219 106.632812 117.3125 104.195312 112.808594 101.949219 C 112.765625 101.921875 112.714844 101.917969 112.664062 101.9375 C 112.617188 101.960938 112.582031 101.996094 112.570312 102.046875 C 112.324219 103.097656 112.808594 103.582031 113.585938 104.304688 C 115.265625 105.871094 116.90625 107.324219 118.308594 109.164062 C 119.640625 110.886719 120.734375 112.757812 121.578125 114.769531 C 122.179688 116.238281 122.460938 117.949219 123.476562 119.207031 C 123.742188 119.535156 124.128906 119.777344 124.371094 120.101562 C 124.933594 120.796875 125.960938 122.488281 125.367188 123.4375 C 125.066406 123.90625 124.269531 123.679688 123.863281 123.761719 C 122.199219 124.0625 120.710938 124.742188 119.398438 125.800781 C 119.019531 126.066406 118.722656 126.40625 118.511719 126.8125 C 118.296875 127.222656 118.191406 127.660156 118.191406 128.121094 C 118.167969 128.90625 118.367188 129.695312 118.445312 130.46875 C 118.535156 131.203125 118.527344 131.9375 118.421875 132.671875 C 118.394531 133.050781 118.320312 133.417969 118.195312 133.777344 C 118.023438 134.734375 117.226562 135.015625 115.8125 134.613281 C 115.855469 134.410156 117.0625 137.75 118.15625 137.808594 C 119.9375 137.902344 120.820312 135.992188 121.410156 134.644531 C 122.003906 133.292969 122.421875 131.761719 123.21875 130.535156 C 124.921875 127.90625 126.574219 129.234375 128.640625 129.46875 C 129.921875 129.59375 130.179688 129.140625 130.0625 127.933594 Z M 130.0625 127.933594 " fill-opacity="1" fill-rule="nonzero"/><path fill="#f9ce64" d="M 174.496094 125.945312 C 174.433594 125.910156 174.375 125.914062 174.316406 125.960938 C 174.257812 126.003906 174.238281 126.0625 174.257812 126.132812 C 174.972656 129.402344 173.53125 132.339844 171.410156 134.757812 C 169.910156 136.460938 167.59375 139.195312 165.195312 139.515625 L 165.144531 139.480469 C 165.105469 139.453125 165.066406 139.445312 165.019531 139.457031 C 164.976562 139.46875 164.945312 139.496094 164.925781 139.542969 C 164.851562 139.542969 164.773438 139.542969 164.699219 139.542969 C 164.609375 139.558594 164.566406 139.613281 164.566406 139.703125 C 164.566406 139.792969 164.609375 139.847656 164.699219 139.867188 C 164.835938 139.875 164.972656 139.875 165.109375 139.867188 C 165.878906 140.402344 166.8125 141.03125 167.75 141.167969 C 169.144531 141.382812 169.507812 140.425781 170.796875 139.953125 C 172.597656 139.304688 174.605469 139.328125 175.769531 137.519531 C 176.308594 136.683594 176.308594 135.777344 176.289062 134.8125 C 176.269531 133.402344 176.867188 132.347656 177.089844 131.019531 C 177.441406 128.917969 176.273438 126.980469 174.496094 125.945312 Z M 176.195312 133.167969 C 176.144531 133.644531 176.132812 134.113281 176.113281 134.585938 C 176.078125 134.109375 176.105469 133.636719 176.195312 133.167969 Z M 176.195312 133.167969 " fill-opacity="1" fill-rule="nonzero"/><path fill="#f9ce64" d="M 189.039062 145.5625 C 188.246094 144.8125 187.476562 144.234375 186.835938 143.332031 C 186.464844 142.808594 186.246094 142.433594 185.671875 142.125 C 185.601562 142.085938 185.535156 142.097656 185.476562 142.15625 C 185.417969 142.214844 185.410156 142.277344 185.449219 142.351562 C 185.921875 143.328125 186.597656 144.679688 186.621094 145.816406 C 186.683594 146 186.691406 146.183594 186.644531 146.371094 C 186.59375 146.554688 186.5 146.714844 186.355469 146.84375 C 186.320312 147.445312 186.03125 147.757812 185.453125 147.78125 C 184.960938 148.074219 184.238281 148.191406 183.699219 148.367188 C 183.636719 148.390625 183.597656 148.433594 183.585938 148.5 C 183.574219 148.566406 183.59375 148.617188 183.644531 148.660156 L 183.25 149.21875 C 183.058594 149.132812 182.890625 149.417969 183.085938 149.5 C 184.964844 150.304688 189.246094 151.433594 190.246094 148.757812 C 190.699219 147.53125 189.882812 146.371094 189.039062 145.5625 Z M 189.039062 145.5625 " fill-opacity="1" fill-rule="nonzero"/><path fill="#f9ce64" d="M 205.265625 121.546875 C 205.203125 121.507812 205.140625 121.511719 205.082031 121.554688 C 205.023438 121.601562 205.003906 121.660156 205.023438 121.730469 C 206.195312 124.953125 206.058594 128.972656 203.796875 131.734375 C 202.820312 132.925781 201.492188 133.394531 200.191406 134.136719 C 198.375 135.175781 196.25 136.550781 194.195312 134.949219 C 194.148438 134.914062 194.097656 134.90625 194.042969 134.917969 C 193.984375 134.933594 193.945312 134.964844 193.917969 135.015625 L 193.40625 134.871094 C 193.328125 134.800781 193.25 134.730469 193.175781 134.65625 C 193.023438 134.507812 192.789062 134.742188 192.941406 134.886719 C 195.0625 136.941406 197.382812 137.417969 200.242188 136.984375 C 202.4375 136.65625 205.019531 136.242188 206.226562 134.164062 C 206.753906 133.257812 206.878906 132.390625 207.613281 131.558594 C 208.128906 130.972656 208.757812 130.488281 209.238281 129.882812 C 209.824219 129.234375 210.148438 128.472656 210.214844 127.601562 C 210.378906 124.722656 207.261719 122.96875 205.265625 121.546875 Z M 205.265625 121.546875 " fill-opacity="1" fill-rule="nonzero"/><path fill="#f9ce64" d="M 148.898438 110.007812 C 148.824219 109.96875 148.757812 109.980469 148.695312 110.03125 C 147.921875 110.652344 148.136719 111.769531 147.9375 112.699219 C 147.511719 114.566406 146.789062 116.3125 145.773438 117.9375 C 145.726562 118.011719 145.734375 118.074219 145.796875 118.128906 L 145.191406 118.695312 C 145.0625 118.523438 144.832031 118.757812 144.960938 118.925781 C 145.734375 119.929688 146.667969 120.75 147.761719 121.390625 C 147.808594 121.414062 147.855469 121.417969 147.90625 121.398438 C 147.953125 121.378906 147.988281 121.34375 148 121.292969 C 148.753906 118.75 149.90625 116.058594 150.21875 113.421875 C 150.363281 112.164062 150.152344 110.605469 148.898438 110.007812 Z M 148.898438 110.007812 " fill-opacity="1" fill-rule="nonzero"/><path fill="#ffffff" d="M 151.632812 156.785156 C 150.527344 164.246094 149.429688 171.707031 148.332031 179.164062 C 148.085938 180.820312 150.609375 181.535156 150.867188 179.863281 C 151.96875 172.402344 153.070312 164.945312 154.171875 157.484375 C 154.414062 155.828125 151.878906 155.128906 151.632812 156.785156 Z M 151.632812 156.785156 " fill-opacity="1" fill-rule="nonzero"/><path fill="#ffffff" d="M 201.171875 95.046875 L 187.703125 101.320312 C 186.167969 102.035156 187.5 104.308594 189.03125 103.597656 L 202.5 97.320312 C 204.035156 96.605469 202.707031 94.335938 201.171875 95.046875 Z M 201.171875 95.046875 " fill-opacity="1" fill-rule="nonzero"/><path fill="#ffffff" d="M 137.296875 120.609375 C 136.867188 116.160156 135.90625 111.789062 132.617188 108.546875 C 131.410156 107.355469 129.550781 109.214844 130.757812 110.410156 C 133.53125 113.144531 134.296875 116.859375 134.664062 120.609375 C 134.820312 122.28125 137.453125 122.296875 137.296875 120.609375 Z M 137.296875 120.609375 " fill-opacity="1" fill-rule="nonzero"/><path fill="#ffffff" d="M 177.265625 119.203125 C 174.664062 113.347656 166.109375 111.3125 160.320312 111.527344 C 158.628906 111.589844 158.621094 114.226562 160.320312 114.160156 C 165.238281 113.976562 172.75 115.507812 174.996094 120.53125 C 175.695312 122.078125 177.953125 120.742188 177.265625 119.203125 Z M 177.265625 119.203125 " fill-opacity="1" fill-rule="nonzero"/><path fill="#ffffff" d="M 179.191406 123.46875 C 177.496094 123.46875 177.492188 126.105469 179.191406 126.105469 C 180.890625 126.105469 180.902344 123.46875 179.191406 123.46875 Z M 179.191406 123.46875 " fill-opacity="1" fill-rule="nonzero"/><path fill="#ffffff" d="M 223.132812 113.617188 C 222.828125 111.953125 220.292969 112.65625 220.59375 114.316406 C 221.636719 119.988281 221.636719 125.660156 220.59375 131.332031 C 220.292969 132.988281 222.828125 133.699219 223.136719 132.03125 C 224.265625 125.894531 224.265625 119.753906 223.132812 113.617188 Z M 223.132812 113.617188 " fill-opacity="1" fill-rule="nonzero"/><path fill="#ffffff" d="M 220.738281 135.761719 C 219.042969 135.761719 219.042969 138.394531 220.738281 138.394531 C 222.4375 138.394531 222.4375 135.761719 220.738281 135.761719 Z M 220.738281 135.761719 " fill-opacity="1" fill-rule="nonzero"/><path fill="#ffffff" d="M 173.09375 144.929688 C 172.964844 144.808594 172.824219 144.714844 172.664062 144.648438 C 172.5 144.585938 172.332031 144.550781 172.160156 144.550781 C 171.984375 144.550781 171.816406 144.585938 171.65625 144.648438 C 171.496094 144.714844 171.351562 144.808594 171.226562 144.929688 L 171.082031 145.074219 C 170.957031 145.199219 170.863281 145.339844 170.792969 145.503906 C 170.726562 145.664062 170.695312 145.832031 170.695312 146.007812 C 170.695312 146.183594 170.726562 146.351562 170.792969 146.511719 C 170.863281 146.671875 170.957031 146.816406 171.082031 146.941406 C 171.203125 147.0625 171.347656 147.160156 171.507812 147.226562 C 171.671875 147.292969 171.839844 147.324219 172.015625 147.324219 C 172.1875 147.324219 172.355469 147.289062 172.519531 147.222656 C 172.679688 147.15625 172.820312 147.0625 172.945312 146.9375 L 173.09375 146.789062 C 173.214844 146.664062 173.304688 146.523438 173.371094 146.363281 C 173.4375 146.199219 173.46875 146.03125 173.46875 145.859375 C 173.46875 145.683594 173.4375 145.519531 173.371094 145.355469 C 173.304688 145.195312 173.214844 145.054688 173.09375 144.929688 Z M 173.09375 144.929688 " fill-opacity="1" fill-rule="nonzero"/><path fill="#ffffff" d="M 200.210938 139.71875 C 197.625 140.640625 194.578125 141.273438 192.3125 139.285156 C 191.039062 138.175781 189.171875 140.03125 190.449219 141.148438 C 193.464844 143.785156 197.339844 143.535156 200.914062 142.257812 C 202.492188 141.691406 201.8125 139.144531 200.210938 139.71875 Z M 200.210938 139.71875 " fill-opacity="1" fill-rule="nonzero"/><path fill="#ffffff" d="M 118.011719 116.945312 C 117.214844 115.515625 116.820312 113.984375 116.824219 112.347656 C 116.824219 110.652344 114.1875 110.652344 114.191406 112.347656 C 114.191406 114.457031 114.707031 116.433594 115.734375 118.273438 C 116.554688 119.757812 118.832031 118.429688 118.011719 116.945312 Z M 118.011719 116.945312 " fill-opacity="1" fill-rule="nonzero"/><path fill="#ffffff" d="M 210.515625 117.175781 C 208.820312 117.175781 208.816406 119.808594 210.515625 119.808594 C 212.214844 119.808594 212.199219 117.175781 210.515625 117.175781 Z M 210.515625 117.175781 " fill-opacity="1" fill-rule="nonzero"/><path fill="#ffffff" d="M 197.382812 168.800781 C 197.261719 168.679688 197.117188 168.585938 196.957031 168.519531 C 196.796875 168.457031 196.628906 168.421875 196.453125 168.421875 C 196.28125 168.421875 196.113281 168.457031 195.953125 168.519531 C 195.789062 168.585938 195.648438 168.679688 195.523438 168.800781 L 195.375 168.945312 C 195.253906 169.070312 195.160156 169.210938 195.09375 169.375 C 195.023438 169.535156 194.992188 169.703125 194.992188 169.878906 C 194.992188 170.050781 195.027344 170.21875 195.09375 170.378906 C 195.160156 170.542969 195.253906 170.683594 195.378906 170.808594 C 195.5 170.929688 195.644531 171.027344 195.804688 171.09375 C 195.964844 171.160156 196.132812 171.191406 196.308594 171.191406 C 196.480469 171.191406 196.648438 171.160156 196.8125 171.09375 C 196.972656 171.027344 197.113281 170.929688 197.238281 170.808594 L 197.382812 170.660156 C 197.507812 170.539062 197.601562 170.394531 197.664062 170.234375 C 197.730469 170.074219 197.765625 169.90625 197.765625 169.730469 C 197.765625 169.558594 197.730469 169.390625 197.664062 169.226562 C 197.601562 169.066406 197.507812 168.925781 197.382812 168.800781 Z M 197.382812 168.800781 " fill-opacity="1" fill-rule="nonzero"/><path fill="#7c2714" d="M 147.84375 109.558594 L 140.902344 111.839844 C 140.503906 111.957031 140.230469 112.210938 140.085938 112.597656 C 139.878906 112.855469 139.777344 113.144531 139.777344 113.472656 C 139.777344 113.804688 139.878906 114.09375 140.085938 114.351562 C 141.65625 116.375 143.441406 118.191406 145.429688 119.808594 C 146.128906 120.371094 147.4375 120.296875 147.636719 119.226562 C 148.117188 116.519531 148.726562 113.839844 149.464844 111.1875 C 149.714844 110.253906 148.8125 109.253906 147.84375 109.558594 Z M 145.503906 116.394531 C 144.652344 115.605469 143.851562 114.773438 143.089844 113.894531 L 146.3125 112.847656 C 146.023438 114.007812 145.757812 115.191406 145.503906 116.394531 Z M 145.503906 116.394531 " fill-opacity="1" fill-rule="nonzero"/><path fill="#7c2714" d="M 175.308594 126.222656 C 174.414062 123.886719 171.992188 123.566406 170.199219 122.226562 C 168.820312 121.199219 168.347656 119.457031 166.722656 118.671875 C 165.457031 118.054688 163.96875 118.105469 162.613281 118.265625 C 160.335938 118.539062 158.261719 119.441406 157.117188 121.300781 C 156.984375 121.40625 156.875 121.535156 156.792969 121.683594 C 156.433594 122.28125 156.152344 122.910156 155.949219 123.570312 C 155.742188 124.234375 155.625 124.914062 155.585938 125.605469 C 155.546875 126.300781 155.59375 126.988281 155.726562 127.667969 C 155.859375 128.351562 156.070312 129.007812 156.363281 129.636719 C 157.792969 132.617188 161.34375 133.628906 162.414062 136.773438 C 163.191406 139.050781 164.492188 140.929688 167.234375 140.257812 C 169.976562 139.582031 172.480469 137.078125 173.875 134.660156 C 175.207031 132.34375 176.316406 128.847656 175.308594 126.222656 Z M 171.078125 134.144531 C 170.253906 135.324219 166.949219 138.988281 165.363281 137.304688 C 164.914062 136.832031 164.847656 135.628906 164.597656 135.027344 C 164.316406 134.339844 163.929688 133.722656 163.441406 133.164062 C 162.269531 131.8125 160.59375 131 159.445312 129.632812 C 158.824219 128.863281 158.429688 127.988281 158.269531 127.007812 C 158.109375 126.03125 158.203125 125.074219 158.550781 124.144531 C 158.789062 123.96875 158.949219 123.738281 159.03125 123.453125 C 159.71875 121.078125 163.613281 120.066406 165.640625 121.207031 C 167.097656 122.023438 167.78125 123.871094 169.324219 124.785156 C 170.867188 125.703125 172.78125 126.019531 173.003906 128.160156 C 173.210938 130.175781 172.199219 132.53125 171.070312 134.144531 Z M 171.078125 134.144531 " fill-opacity="1" fill-rule="nonzero"/><path fill="#7c2714" d="M 207.113281 125.253906 C 206.984375 122.421875 204.980469 120.59375 202.511719 119.539062 C 199.6875 118.332031 196.003906 117.308594 192.914062 117.492188 C 191.378906 117.582031 190.132812 118.171875 188.816406 118.925781 C 187.425781 119.71875 185.691406 120.460938 184.585938 121.632812 C 184.195312 122 183.921875 122.4375 183.761719 122.949219 C 183.601562 123.457031 183.578125 123.972656 183.691406 124.496094 C 183.949219 125.632812 185.519531 126.585938 185.433594 127.714844 C 185.390625 128.046875 185.484375 128.339844 185.707031 128.59375 C 185.90625 130.023438 186.097656 131.445312 187.222656 132.496094 C 188.394531 133.605469 189.785156 133.472656 191.222656 133.859375 C 192.664062 134.242188 193.535156 135.554688 194.855469 136.175781 C 197.5 137.441406 201.234375 135.601562 203.355469 133.972656 C 205.867188 132.050781 207.261719 128.367188 207.113281 125.253906 Z M 204.277344 127.160156 C 203.6875 129.992188 202.324219 131.863281 199.683594 133.0625 C 198.214844 133.710938 196.8125 134.308594 195.339844 133.386719 C 194.539062 132.894531 193.933594 132.183594 193.089844 131.757812 C 191.222656 130.8125 188.964844 131.597656 188.394531 129.085938 C 188.007812 127.402344 188.035156 125.789062 187.148438 124.242188 C 187.027344 124.027344 186.855469 123.859375 186.636719 123.738281 C 186.914062 122.667969 188.871094 121.949219 189.785156 121.410156 C 190.914062 120.761719 191.96875 120.144531 193.3125 120.109375 C 195.648438 120.042969 198.320312 120.859375 200.519531 121.601562 C 203.285156 122.527344 204.925781 124.039062 204.277344 127.160156 Z M 204.277344 127.160156 " fill-opacity="1" fill-rule="nonzero"/><path fill="#7c2714" d="M 188.761719 146.964844 C 187.730469 144.167969 186.121094 141.753906 183.929688 139.730469 C 182.988281 138.863281 181.699219 139.707031 181.652344 140.671875 C 181.496094 140.871094 181.40625 141.09375 181.375 141.339844 C 181.175781 142.859375 180.976562 144.378906 180.78125 145.898438 C 180.640625 146.992188 180.207031 148.339844 181.15625 149.1875 C 182.820312 150.664062 186.496094 149.289062 188.152344 148.449219 C 188.414062 148.300781 188.597656 148.089844 188.710938 147.8125 C 188.824219 147.535156 188.84375 147.253906 188.761719 146.964844 Z M 184.6875 146.941406 C 184.179688 147.050781 183.667969 147.117188 183.148438 147.132812 C 183.175781 146.359375 183.472656 145.382812 183.566406 144.761719 C 183.628906 144.304688 183.6875 143.84375 183.75 143.382812 C 184.5625 144.382812 185.242188 145.46875 185.785156 146.636719 C 185.425781 146.765625 185.058594 146.867188 184.6875 146.941406 Z M 184.6875 146.941406 " fill-opacity="1" fill-rule="nonzero"/><path fill="#7c2714" d="M 227.738281 206.824219 L 221.730469 202.917969 C 221.582031 202.824219 221.421875 202.761719 221.25 202.734375 C 221.074219 202.703125 220.902344 202.710938 220.734375 202.75 C 220.5625 202.789062 220.40625 202.859375 220.265625 202.964844 C 220.125 203.066406 220.007812 203.195312 219.917969 203.34375 L 219.886719 203.394531 C 219.804688 203.539062 219.753906 203.691406 219.730469 203.855469 C 219.707031 204.019531 219.714844 204.179688 219.753906 204.339844 C 219.789062 204.5 219.855469 204.648438 219.949219 204.785156 C 220.042969 204.921875 220.160156 205.035156 220.296875 205.125 L 226.304688 209.03125 C 226.453125 209.125 226.613281 209.1875 226.785156 209.214844 C 226.960938 209.242188 227.132812 209.238281 227.300781 209.199219 C 227.472656 209.15625 227.628906 209.085938 227.769531 208.980469 C 227.910156 208.878906 228.027344 208.75 228.117188 208.601562 L 228.148438 208.550781 C 228.226562 208.40625 228.28125 208.253906 228.304688 208.089844 C 228.328125 207.925781 228.320312 207.765625 228.28125 207.605469 C 228.242188 207.445312 228.175781 207.296875 228.082031 207.164062 C 227.988281 207.027344 227.875 206.914062 227.738281 206.824219 Z M 227.738281 206.824219 " fill-opacity="1" fill-rule="nonzero"/><path fill="#7c2714" d="M 241.046875 191.761719 L 222.597656 179.484375 C 222.449219 179.386719 222.289062 179.324219 222.117188 179.292969 C 221.941406 179.261719 221.769531 179.269531 221.597656 179.308594 C 221.425781 179.347656 221.269531 179.417969 221.125 179.523438 C 220.984375 179.628906 220.867188 179.753906 220.777344 179.90625 L 220.746094 179.953125 C 220.664062 180.097656 220.613281 180.25 220.589844 180.410156 C 220.566406 180.574219 220.570312 180.734375 220.609375 180.894531 C 220.644531 181.050781 220.710938 181.199219 220.800781 181.335938 C 220.894531 181.46875 221.007812 181.585938 221.144531 181.675781 L 239.59375 193.957031 C 239.742188 194.054688 239.902344 194.121094 240.078125 194.152344 C 240.253906 194.183594 240.425781 194.179688 240.601562 194.140625 C 240.773438 194.101562 240.933594 194.03125 241.078125 193.925781 C 241.222656 193.820312 241.339844 193.691406 241.429688 193.539062 L 241.460938 193.488281 C 241.539062 193.34375 241.59375 193.191406 241.617188 193.027344 C 241.636719 192.867188 241.628906 192.703125 241.59375 192.542969 C 241.554688 192.382812 241.488281 192.238281 241.394531 192.101562 C 241.300781 191.96875 241.183594 191.855469 241.046875 191.761719 Z M 241.046875 191.761719 " fill-opacity="1" fill-rule="nonzero"/><path fill="#7c2714" d="M 253.386719 165.0625 C 249.632812 162.816406 237.089844 155.339844 230.191406 151.453125 C 231.097656 149.0625 231.871094 146.617188 232.566406 144.148438 C 234.332031 137.9375 235.496094 131.617188 236.0625 125.183594 C 236.300781 122.800781 236.363281 120.414062 236.253906 118.023438 L 248.535156 125.972656 C 248.683594 126.0625 248.84375 126.125 249.015625 126.152344 C 249.1875 126.179688 249.359375 126.175781 249.527344 126.132812 C 249.699219 126.09375 249.855469 126.023438 249.996094 125.917969 C 250.136719 125.816406 250.25 125.6875 250.339844 125.539062 L 250.371094 125.488281 C 250.453125 125.34375 250.507812 125.191406 250.53125 125.027344 C 250.558594 124.863281 250.550781 124.703125 250.511719 124.539062 C 250.472656 124.378906 250.40625 124.230469 250.3125 124.097656 C 250.214844 123.960938 250.097656 123.847656 249.960938 123.757812 L 235.777344 114.605469 C 235.335938 112.511719 234.46875 110.609375 233.175781 108.90625 C 230.152344 105 225.125 103.882812 220.660156 105.898438 C 218.476562 106.875 216.429688 108.566406 215.414062 110.78125 C 215.25 111.136719 215.117188 111.5 215.007812 111.875 C 213.183594 111.355469 211.324219 111.117188 209.429688 111.15625 C 208.816406 111.15625 208.191406 111.230469 207.5625 111.285156 C 209.613281 109.015625 211.660156 106.734375 213.707031 104.449219 L 217.378906 100.371094 C 218.183594 99.480469 219.332031 98.550781 219.753906 97.390625 C 220.699219 94.863281 218.128906 93.484375 216.242188 92.5625 C 213.503906 91.234375 210.351562 89.308594 207.261719 89 C 204.0625 88.671875 200.703125 90.488281 197.785156 91.601562 C 194.378906 92.90625 190.988281 94.238281 187.695312 95.796875 C 181.273438 98.820312 175.585938 103.546875 168.792969 105.71875 C 168.5 105.804688 168.269531 105.976562 168.097656 106.226562 C 166.433594 106.070312 164.824219 105.6875 163.265625 105.078125 C 160.511719 103.957031 158.15625 101.714844 155.039062 101.660156 C 152.113281 101.609375 149.507812 103.996094 146.664062 103.753906 C 145.105469 103.625 144.0625 102.234375 142.503906 101.960938 C 140.808594 101.667969 139.09375 102.371094 137.429688 102.546875 C 133.390625 102.960938 129.265625 101.949219 125.3125 101.269531 L 113.054688 99.175781 C 112.929688 99.09375 112.796875 99.035156 112.65625 98.992188 C 111.914062 98.542969 110.609375 98.902344 110.527344 100.070312 C 110.253906 103.46875 109.976562 106.867188 109.699219 110.261719 C 109.441406 113.421875 109.375 116.121094 110.675781 119.089844 C 111.328125 120.597656 112.136719 122.019531 112.566406 123.621094 C 113.027344 125.339844 113.140625 127.117188 113.273438 128.886719 C 113.480469 131.6875 113.65625 134.667969 114.972656 137.210938 C 115.964844 139.125 117.898438 140.292969 120.011719 139.378906 C 122.617188 138.261719 123.074219 135.605469 123.546875 133.125 C 123.929688 131.109375 125.074219 128.664062 127.394531 130.441406 C 128.820312 131.527344 130.089844 132.933594 131.402344 134.15625 C 133.679688 136.261719 136.207031 138.355469 137.746094 141.078125 C 138.753906 142.863281 138.789062 144.425781 138.878906 146.414062 C 138.933594 147.574219 139.207031 148.652344 140.011719 149.519531 C 141.683594 151.324219 144.078125 151.183594 146.25 150.574219 C 145.273438 159.3125 144.320312 168.046875 143.484375 176.792969 C 143.175781 180.0625 142.894531 183.335938 142.640625 186.617188 C 142.515625 188.328125 142.398438 190.035156 142.296875 191.746094 C 142.230469 192.878906 141.972656 194.230469 142.503906 195.296875 C 142.96875 196.207031 143.894531 196.625 144.753906 197.097656 C 146.199219 197.886719 147.683594 198.636719 149.140625 199.394531 C 152.074219 200.910156 155.03125 202.382812 158.003906 203.804688 C 158.15625 203.886719 158.320312 203.9375 158.492188 203.957031 C 158.664062 203.976562 158.832031 203.964844 159 203.921875 C 159.164062 203.878906 159.316406 203.804688 159.457031 203.703125 C 159.597656 203.601562 159.710938 203.476562 159.804688 203.332031 C 166.425781 194.472656 172.695312 185.371094 178.617188 176.03125 L 180.464844 177.660156 C 180.640625 177.8125 180.839844 177.921875 181.0625 177.984375 C 181.269531 179.386719 181.660156 180.738281 182.234375 182.039062 C 182.6875 183.039062 183.292969 183.9375 184.054688 184.734375 C 184.816406 185.527344 185.6875 186.171875 186.671875 186.667969 C 186.746094 186.738281 186.828125 186.800781 186.917969 186.851562 C 193.816406 191.03125 200.738281 195.179688 207.675781 199.300781 C 209.132812 200.171875 210.464844 197.890625 209.003906 197.023438 C 203.898438 193.984375 198.800781 190.933594 193.710938 187.875 C 194.625 187.769531 195.515625 187.574219 196.386719 187.28125 C 197.601562 186.871094 198.746094 186.304688 199.8125 185.59375 C 199.921875 185.566406 200.023438 185.523438 200.121094 185.472656 C 205.398438 182.683594 209.820312 178.042969 214.113281 173.960938 C 218.304688 169.972656 222.296875 165.71875 225.484375 160.871094 C 226.921875 158.65625 228.160156 156.335938 229.199219 153.910156 C 235.980469 157.738281 248.289062 165.078125 252.039062 167.320312 C 252.1875 167.40625 252.347656 167.460938 252.515625 167.484375 C 252.683594 167.507812 252.851562 167.5 253.019531 167.457031 C 253.183594 167.414062 253.335938 167.34375 253.472656 167.238281 C 253.609375 167.136719 253.722656 167.011719 253.808594 166.867188 L 253.84375 166.8125 C 253.925781 166.664062 253.976562 166.507812 254 166.339844 C 254.019531 166.171875 254.007812 166.007812 253.964844 165.84375 C 253.925781 165.683594 253.851562 165.535156 253.753906 165.398438 C 253.652344 165.261719 253.53125 165.152344 253.386719 165.0625 Z M 127.507812 127.417969 C 124.984375 126.316406 122.683594 127.839844 121.648438 130.175781 C 121.027344 131.554688 121.027344 133.039062 120.636719 134.480469 C 120.28125 135.78125 119.199219 138.292969 117.382812 136.183594 C 116.945312 135.667969 116.675781 134.433594 116.511719 133.765625 C 115.59375 130.09375 116.085938 126.203125 115 122.5625 C 114.527344 121 113.746094 119.582031 113.089844 118.105469 C 112.210938 116.132812 112.035156 114.363281 112.171875 112.246094 C 112.378906 108.972656 112.675781 105.699219 112.957031 102.433594 C 117.136719 105.75 121.3125 109.273438 124.277344 113.738281 C 126.109375 116.503906 127.328125 119.515625 127.9375 122.777344 C 128.265625 124.375 128.46875 125.984375 128.710938 127.59375 C 128.738281 127.777344 128.761719 127.976562 128.789062 128.171875 C 128.390625 127.871094 127.964844 127.621094 127.507812 127.417969 Z M 131.859375 130.347656 C 131.417969 129.550781 131.445312 128.195312 131.308594 127.308594 C 130.695312 123.320312 130.160156 119.378906 128.417969 115.691406 C 125.929688 110.40625 121.722656 106.273438 117.273438 102.550781 L 123.78125 103.667969 C 127.46875 104.296875 131.214844 105.144531 134.960938 105.246094 C 136.726562 105.257812 138.46875 105.085938 140.199219 104.730469 C 141.75 104.449219 142.527344 104.730469 143.800781 105.492188 C 144.242188 105.761719 144.707031 105.980469 145.195312 106.144531 C 147.917969 106.964844 150.402344 105.371094 152.953125 104.640625 C 156.480469 103.613281 158.914062 106.042969 161.96875 107.351562 C 164.746094 108.542969 167.757812 108.9375 170.753906 109.023438 C 177.125 109.199219 184.042969 107.828125 189.878906 111.070312 C 190.464844 110.289062 186.707031 106.933594 184.347656 106.609375 C 180.976562 106.148438 177.480469 106.324219 174.03125 106.390625 C 177.453125 104.699219 180.636719 102.5625 183.980469 100.664062 C 189.441406 97.566406 195.296875 95.300781 201.175781 93.128906 C 202.535156 92.632812 203.929688 91.992188 205.359375 91.707031 C 207.179688 91.347656 208.746094 92.003906 210.382812 92.722656 C 211.785156 93.335938 213.171875 93.984375 214.550781 94.648438 C 215.15625 94.9375 216.078125 95.171875 216.542969 95.640625 C 217.191406 96.292969 217.265625 96.332031 216.664062 97.25 C 215.035156 99.734375 212.433594 101.945312 210.449219 104.152344 L 203.960938 111.351562 C 203.253906 111.257812 199.101562 112.152344 200.585938 112.976562 C 202.746094 114.175781 204.972656 114.125 207.371094 113.921875 C 209.84375 113.671875 212.277344 113.875 214.671875 114.527344 C 214.703125 115.835938 214.804688 117.136719 214.976562 118.433594 C 215.546875 123.792969 215.117188 129.070312 213.695312 134.269531 C 212.453125 138.796875 210.550781 143.027344 207.988281 146.960938 C 206.269531 145.984375 203.5 144.035156 201.414062 144.542969 C 199.328125 145.046875 197.292969 147.632812 195.882812 149.097656 C 194.660156 150.339844 191.976562 152.480469 191.714844 154.304688 C 191.46875 156.050781 193.710938 158.28125 195.003906 159.671875 C 193.332031 160.746094 191.59375 161.738281 189.796875 162.675781 C 189.777344 162.6875 189.757812 162.699219 189.742188 162.714844 C 189.101562 162.679688 188.484375 162.542969 187.890625 162.296875 C 184.992188 161.066406 182.78125 157.929688 180.28125 156.039062 C 178.023438 154.339844 175.398438 152.992188 172.46875 153.109375 C 171.199219 153.167969 169.960938 153.5 168.707031 153.695312 C 167.621094 153.863281 166.238281 154.054688 165.519531 152.953125 C 164.980469 152.132812 165.078125 150.796875 164.945312 149.851562 C 164.042969 143.449219 158.074219 140.050781 153.015625 137.066406 C 150.03125 135.308594 147.574219 133.402344 145.414062 130.679688 C 143.75 128.574219 141.410156 126.390625 138.480469 127.070312 C 136.804688 127.457031 135.835938 128.695312 134.652344 129.839844 C 133.898438 130.578125 132.617188 131.714844 131.859375 130.332031 Z M 206.46875 149.148438 C 206.144531 149.589844 205.820312 150.027344 205.460938 150.449219 C 203.058594 153.40625 200.300781 155.988281 197.1875 158.1875 C 196.488281 157.402344 194.261719 155.121094 194.492188 154.402344 C 194.613281 154.03125 195.832031 152.988281 196.164062 152.617188 C 196.675781 152.050781 197.191406 151.496094 197.726562 150.953125 C 198.746094 149.917969 199.832031 148.609375 201.066406 147.839844 C 202.179688 147.148438 202.667969 147.226562 203.839844 147.765625 C 204.742188 148.175781 205.609375 148.640625 206.46875 149.128906 Z M 181.226562 166.777344 C 174.121094 178.542969 166.464844 189.957031 158.253906 201.023438 C 155.894531 199.875 153.539062 198.703125 151.191406 197.511719 C 149.96875 196.886719 148.75 196.253906 147.53125 195.609375 C 145.796875 194.699219 144.769531 194.347656 144.894531 192.191406 C 145.253906 186.058594 145.789062 179.9375 146.402344 173.820312 C 147.402344 163.777344 148.03125 158.175781 149.152344 148.140625 C 148.691406 144.601562 148.175781 141.457031 147.175781 142.203125 C 146.976562 144.046875 146.773438 145.890625 146.5625 147.738281 C 144.535156 148.449219 141.578125 149.179688 141.5 146.109375 C 141.460938 144.640625 141.472656 143.296875 140.984375 141.878906 C 140.007812 139.054688 137.949219 136.757812 135.835938 134.71875 C 135.34375 134.234375 134.835938 133.765625 134.328125 133.292969 C 134.507812 133.21875 134.6875 133.136719 134.859375 133.042969 C 135.878906 132.476562 136.574219 131.578125 137.40625 130.761719 C 139.136719 129.101562 140.984375 129.628906 142.503906 131.277344 C 144.285156 133.203125 145.757812 135.183594 147.789062 136.792969 L 150.222656 138.460938 C 152.09375 139.621094 154.039062 140.648438 155.878906 141.851562 C 158.484375 143.5625 161.136719 145.851562 162.0625 148.933594 C 162.757812 151.210938 162.214844 153.929688 164.363281 155.554688 C 166.292969 157.015625 168.796875 156.324219 170.960938 155.945312 C 174.144531 155.390625 176.703125 156.546875 179.175781 158.511719 C 180.402344 159.488281 181.53125 160.625 182.6875 161.707031 C 182.210938 163.398438 181.722656 165.089844 181.226562 166.777344 Z M 202.890625 177.0625 C 201.617188 183.035156 194.539062 186.804688 188.84375 184.808594 C 180.972656 182.050781 183.265625 170.199219 185.894531 164.253906 C 188.433594 165.707031 190.941406 165.105469 193.796875 165.230469 C 199.492188 165.445312 204.089844 171.515625 202.902344 177.0625 Z M 227.601562 150.925781 C 227.1875 151.261719 227.015625 151.695312 227.078125 152.226562 C 226.394531 153.878906 225.609375 155.484375 224.730469 157.039062 C 221.742188 162.308594 217.675781 166.847656 213.324219 171.078125 C 210.71875 173.601562 208.042969 176.355469 205.160156 178.785156 C 205.460938 177.863281 205.640625 176.921875 205.703125 175.953125 C 205.800781 174.140625 205.5 172.394531 204.808594 170.71875 C 208.070312 168.371094 211.050781 165.707031 213.75 162.726562 C 217.613281 158.441406 222.789062 146.472656 220.910156 146.902344 C 219.019531 151.179688 216.605469 155.140625 213.667969 158.777344 C 210.734375 162.417969 207.375 165.613281 203.59375 168.363281 C 202.117188 166.074219 200.121094 164.410156 197.597656 163.378906 C 196.785156 163.058594 195.945312 162.84375 195.078125 162.726562 C 202.238281 158.324219 208.140625 152.582031 212.226562 144.988281 C 216.640625 136.78125 218.613281 127.359375 217.578125 118.089844 C 217.410156 116.902344 217.324219 115.707031 217.324219 114.507812 C 217.570312 114.101562 217.613281 113.675781 217.460938 113.226562 C 217.660156 112.085938 218.164062 111.097656 218.964844 110.261719 C 220.917969 108.214844 224.050781 107.058594 226.863281 107.703125 C 233.101562 109.132812 233.867188 116.773438 233.648438 121.984375 C 233.335938 128.179688 232.414062 134.277344 230.878906 140.285156 C 230.011719 143.902344 228.925781 147.445312 227.613281 150.925781 Z M 227.601562 150.925781 " fill-opacity="1" fill-rule="nonzero"/><path fill="#7c2714" d="M 253.730469 147.152344 L 242.828125 140.382812 C 242.574219 140.230469 242.300781 140.167969 242.003906 140.203125 C 241.707031 140.238281 241.453125 140.359375 241.242188 140.566406 C 241.105469 140.707031 241.007812 140.867188 240.945312 141.054688 C 240.882812 141.238281 240.863281 141.425781 240.882812 141.621094 C 240.90625 141.8125 240.96875 141.992188 241.070312 142.160156 C 241.171875 142.324219 241.304688 142.460938 241.46875 142.566406 L 252.34375 149.382812 C 252.488281 149.46875 252.648438 149.527344 252.816406 149.550781 C 252.988281 149.578125 253.15625 149.570312 253.320312 149.53125 C 253.488281 149.488281 253.640625 149.417969 253.78125 149.316406 C 253.917969 149.214844 254.03125 149.089844 254.121094 148.945312 L 254.152344 148.894531 C 254.234375 148.75 254.289062 148.597656 254.3125 148.429688 C 254.335938 148.265625 254.328125 148.101562 254.289062 147.941406 C 254.25 147.777344 254.183594 147.628906 254.085938 147.492188 C 253.988281 147.355469 253.871094 147.242188 253.730469 147.152344 Z M 253.730469 147.152344 " fill-opacity="1" fill-rule="nonzero"/><path fill="#7c2714" d="M 265.34375 133.367188 L 260.480469 130.207031 C 260.332031 130.113281 260.171875 130.050781 260 130.023438 C 259.828125 129.996094 259.65625 130 259.484375 130.039062 C 259.316406 130.082031 259.160156 130.152344 259.019531 130.257812 C 258.878906 130.359375 258.761719 130.484375 258.671875 130.636719 L 258.644531 130.679688 C 258.5625 130.824219 258.507812 130.980469 258.484375 131.144531 C 258.457031 131.308594 258.464844 131.46875 258.503906 131.632812 C 258.542969 131.792969 258.609375 131.941406 258.707031 132.078125 C 258.804688 132.210938 258.921875 132.324219 259.0625 132.414062 L 263.941406 135.539062 C 264.199219 135.695312 264.476562 135.761719 264.773438 135.726562 C 265.074219 135.695312 265.328125 135.574219 265.542969 135.363281 C 265.679688 135.222656 265.78125 135.0625 265.84375 134.878906 C 265.910156 134.699219 265.933594 134.511719 265.914062 134.316406 C 265.894531 134.125 265.832031 133.945312 265.734375 133.777344 C 265.632812 133.613281 265.503906 133.476562 265.34375 133.367188 Z M 265.34375 133.367188 " fill-opacity="1" fill-rule="nonzero"/><g fill="#7c2714" fill-opacity="1"><g transform="translate(65.320313, 257.918978)"><g><path d="M 2.800781 -0.0546875 L 2.910156 -0.0546875 C 5.320312 0.113281 5.207031 0.113281 8.289062 -0.449219 L 15.398438 -1.457031 L 19.148438 -2.910156 L 23.125 -7.054688 C 24.132812 -8.230469 25.308594 -9.296875 26.09375 -10.695312 C 29.230469 -23.910156 28.949219 -18.308594 27.382812 -27.382812 L 26.039062 -29.84375 L 25.535156 -30.515625 L 24.46875 -31.804688 L 17.972656 -35.5 C 15.511719 -35.445312 13.046875 -35.277344 10.582031 -35.164062 C 5.933594 -35.164062 7.449219 -35.613281 1.679688 -34.046875 C 1.734375 -31.804688 1.734375 -29.621094 1.792969 -27.4375 L 2.238281 -16.460938 C 2.464844 -10.976562 2.574219 -5.542969 2.6875 -0.113281 L 2.742188 -0.113281 C 2.742188 -0.113281 2.800781 -0.113281 2.800781 -0.0546875 Z M 11.367188 -9.40625 L 11.3125 -10.359375 C 11.3125 -11.648438 11.367188 -12.207031 11.3125 -16.574219 C 11.3125 -18.644531 10.976562 -24.75 10.976562 -25.757812 C 11.816406 -25.8125 14.277344 -25.757812 15.285156 -25.644531 L 17.636719 -25.03125 C 18.925781 -24.359375 18.703125 -24.300781 19.429688 -23.796875 L 20.328125 -21.503906 C 19.652344 -17.191406 20.214844 -19.261719 19.261719 -16.628906 L 18.140625 -14.503906 L 16.015625 -12.09375 L 11.480469 -9.464844 C 11.421875 -9.40625 11.367188 -9.40625 11.367188 -9.40625 Z M 11.367188 -9.40625 "/></g></g></g><g fill="#7c2714" fill-opacity="1"><g transform="translate(95.500098, 257.918978)"><g><path d="M 3.136719 0.617188 C 3.304688 0.617188 3.472656 0.617188 3.640625 0.558594 C 5.375 -0.113281 4.085938 0.335938 7.894531 -0.449219 C 7.894531 -0.449219 14.222656 -1.398438 15.847656 -1.511719 C 18.589844 -1.679688 22.511719 -2.183594 25.140625 -2.296875 C 24.972656 -3.75 24.863281 -5.207031 24.636719 -6.664062 C 24.132812 -9.6875 25.199219 -8.566406 23.070312 -8.792969 C 20.496094 -8.566406 16.183594 -8.902344 13.046875 -8.398438 C 13.046875 -10.246094 12.765625 -13.664062 12.765625 -15.511719 C 15.175781 -15.621094 17.582031 -15.734375 20.046875 -15.902344 C 19.988281 -16.015625 19.988281 -16.125 19.988281 -16.238281 C 19.542969 -18.476562 20.046875 -16.40625 19.375 -19.148438 L 18.535156 -23.183594 C 16.742188 -23.238281 13.328125 -23.070312 12.65625 -22.957031 C 12.65625 -24.804688 12.597656 -28.332031 12.597656 -28.667969 L 14.054688 -28.835938 C 16.460938 -29.0625 17.917969 -28.949219 20.214844 -28.949219 C 20.4375 -31.019531 21.445312 -35.726562 21.109375 -35.390625 C 20.886719 -35.390625 16.964844 -35.726562 14.894531 -35.835938 C 11.421875 -36.171875 5.09375 -35.949219 1.679688 -36.398438 C 2.128906 -29.957031 2.519531 -23.460938 2.632812 -16.964844 C 2.6875 -12.765625 2.855469 -8.566406 3.023438 -4.367188 C 3.023438 -2.742188 3.078125 -1.0625 3.136719 0.617188 Z M 3.136719 0.617188 "/></g></g></g><g fill="#7c2714" fill-opacity="1"><g transform="translate(122.320355, 257.918978)"><g><path d="M 22.398438 1.230469 C 22.789062 -7.617188 22.34375 1.0625 22.902344 -7.449219 L 23.070312 -8.566406 C 23.015625 -8.566406 22.902344 -8.566406 22.847656 -8.511719 L 22.007812 -8.34375 L 21.613281 -8.230469 L 21.335938 -8.230469 C 20.71875 -8.175781 20.101562 -8.121094 19.484375 -8.121094 C 18.140625 -8.121094 13.214844 -8.457031 11.535156 -8.457031 C 11.589844 -10.304688 11.589844 -15.566406 11.589844 -16.351562 C 11.589844 -18.253906 11.535156 -20.15625 11.367188 -22.007812 C 11.421875 -24.191406 11.703125 -29.734375 11.703125 -30.40625 C 11.816406 -31.078125 11.816406 -32.140625 11.871094 -33.597656 C 10.078125 -33.597656 2.96875 -33.429688 1.679688 -33.429688 C 1.679688 -12.992188 2.070312 -29.734375 2.070312 -8.566406 C 2.015625 -6.496094 1.902344 -1.960938 1.679688 0.113281 C 3.078125 0.0546875 4.421875 0 5.765625 0 C 11.871094 0 15.566406 0.785156 20.941406 1.175781 C 21.445312 1.230469 21.949219 1.230469 22.398438 1.230469 Z M 22.398438 1.230469 "/></g></g></g><g fill="#7c2714" fill-opacity="1"><g transform="translate(147.0689, 257.918978)"><g><path d="M 2.40625 -30.628906 C 5.261719 -31.582031 9.351562 -32.699219 11.816406 -33.429688 C 11.589844 -36.507812 10.917969 -39.53125 10.695312 -41.042969 C 7.671875 -40.539062 4.085938 -39.699219 1.847656 -39.027344 C 1.792969 -39.027344 1.734375 -39.027344 1.679688 -38.972656 C 1.902344 -34.550781 2.351562 -35.109375 2.40625 -30.628906 Z M 2.6875 0 C 3.414062 -0.0546875 6.832031 -0.0546875 7.785156 0 C 10.695312 -0.785156 11.03125 -0.839844 11.367188 -0.953125 C 11.589844 -24.75 11.648438 -16.519531 11.3125 -27.886719 C 11.199219 -27.886719 11.085938 -27.886719 10.976562 -27.941406 C 5.878906 -28.667969 8.398438 -28.109375 3.191406 -28.558594 C 2.855469 -28.558594 2.574219 -28.613281 2.238281 -28.667969 C 2.238281 -27.886719 2.6875 -8.230469 2.6875 0 Z M 2.6875 0 "/></g></g></g><g fill="#7c2714" fill-opacity="1"><g transform="translate(160.563016, 257.918978)"><g><path d="M 11.703125 -0.0546875 L 21.949219 -0.390625 L 23.964844 -3.695312 C 24.582031 -5.039062 25.03125 -6.382812 25.589844 -7.839844 C 26.820312 -10.640625 27.886719 -13.550781 29.0625 -16.460938 C 29.398438 -17.527344 29.734375 -18.535156 30.070312 -19.429688 C 32.589844 -26.148438 33.148438 -27.773438 33.539062 -29.285156 C 32.757812 -29.398438 29.621094 -29.566406 28.726562 -29.675781 C 27.886719 -29.902344 25.589844 -30.238281 25.367188 -30.292969 L 25.085938 -29.566406 C 23.460938 -24.527344 20.046875 -15.230469 17.636719 -10.191406 C 17.132812 -11.648438 16.6875 -13.101562 16.183594 -14.503906 C 14.894531 -18.476562 13.4375 -24.132812 12.429688 -28.109375 C 12.152344 -29.0625 11.984375 -29.902344 11.648438 -30.683594 L 9.96875 -30.515625 L 1.679688 -30.179688 C 2.574219 -26.878906 5.320312 -19.820312 6.4375 -16.628906 C 8.398438 -11.144531 10.136719 -5.597656 11.703125 -0.0546875 Z M 11.703125 -0.0546875 "/></g></g></g><g fill="#7c2714" fill-opacity="1"><g transform="translate(195.782104, 257.918978)"><g><path d="M 3.136719 0.617188 C 3.304688 0.617188 3.472656 0.617188 3.640625 0.558594 C 5.375 -0.113281 4.085938 0.335938 7.894531 -0.449219 C 7.894531 -0.449219 14.222656 -1.398438 15.847656 -1.511719 C 18.589844 -1.679688 22.511719 -2.183594 25.140625 -2.296875 C 24.972656 -3.75 24.863281 -5.207031 24.636719 -6.664062 C 24.132812 -9.6875 25.199219 -8.566406 23.070312 -8.792969 C 20.496094 -8.566406 16.183594 -8.902344 13.046875 -8.398438 C 13.046875 -10.246094 12.765625 -13.664062 12.765625 -15.511719 C 15.175781 -15.621094 17.582031 -15.734375 20.046875 -15.902344 C 19.988281 -16.015625 19.988281 -16.125 19.988281 -16.238281 C 19.542969 -18.476562 20.046875 -16.40625 19.375 -19.148438 L 18.535156 -23.183594 C 16.742188 -23.238281 13.328125 -23.070312 12.65625 -22.957031 C 12.65625 -24.804688 12.597656 -28.332031 12.597656 -28.667969 L 14.054688 -28.835938 C 16.460938 -29.0625 17.917969 -28.949219 20.214844 -28.949219 C 20.4375 -31.019531 21.445312 -35.726562 21.109375 -35.390625 C 20.886719 -35.390625 16.964844 -35.726562 14.894531 -35.835938 C 11.421875 -36.171875 5.09375 -35.949219 1.679688 -36.398438 C 2.128906 -29.957031 2.519531 -23.460938 2.632812 -16.964844 C 2.6875 -12.765625 2.855469 -8.566406 3.023438 -4.367188 C 3.023438 -2.742188 3.078125 -1.0625 3.136719 0.617188 Z M 3.136719 0.617188 "/></g></g></g><g fill="#7c2714" fill-opacity="1"><g transform="translate(222.602361, 257.918978)"><g><path d="M 3.414062 0 C 7 -0.503906 12.488281 -0.558594 16.519531 -1.0625 C 19.820312 -1.511719 23.292969 -3.023438 24.917969 -6.101562 C 25.757812 -7.558594 25.925781 -9.296875 25.925781 -10.976562 C 25.925781 -15.007812 23.742188 -18.871094 21.335938 -19.820312 C 22.230469 -19.820312 24.359375 -21.222656 25.421875 -22.902344 C 25.980469 -23.855469 26.316406 -24.863281 26.484375 -25.925781 C 26.820312 -26.878906 27.046875 -27.886719 27.046875 -28.894531 C 27.046875 -30.628906 26.542969 -31.917969 25.644531 -32.980469 C 24.527344 -34.660156 23.015625 -35.5 21.167969 -35.894531 L 13.046875 -36.171875 C 6.71875 -36.171875 7.726562 -35.78125 1.679688 -35.78125 C 1.902344 -32.085938 1.960938 -28.332031 2.070312 -24.582031 C 2.183594 -20.664062 2.351562 -16.742188 2.574219 -12.824219 L 2.742188 -11.589844 C 2.855469 -10.136719 2.855469 -8.960938 3.414062 0 Z M 9.296875 -22.957031 C 9.296875 -24.582031 9.238281 -26.261719 9.238281 -27.941406 C 9.96875 -28.390625 11.144531 -28.445312 12.597656 -28.445312 L 13.160156 -28.390625 C 14.78125 -28.109375 17.300781 -27.4375 17.695312 -27.101562 L 18.308594 -26.652344 L 18.476562 -26.429688 L 18.644531 -25.980469 L 18.589844 -25.757812 L 18.199219 -25.308594 C 17.414062 -24.804688 17.246094 -24.75 16.628906 -24.46875 C 14.445312 -23.796875 13.550781 -23.628906 12.65625 -23.460938 C 9.574219 -22.957031 10.078125 -22.957031 9.296875 -22.957031 Z M 9.183594 -5.933594 C 8.960938 -10.359375 8.847656 -8.847656 9.128906 -13.941406 C 10.695312 -13.941406 12.207031 -13.941406 13.773438 -13.832031 C 15.285156 -13.550781 14.949219 -13.664062 15.734375 -13.328125 L 16.910156 -12.488281 C 16.910156 -9.519531 16.742188 -11.03125 15.679688 -8.0625 C 14.726562 -7.503906 15.0625 -7.671875 12.320312 -6.4375 L 9.238281 -5.933594 Z M 9.183594 -5.933594 "/></g></g></g><g fill="#7c2714" fill-opacity="1"><g transform="translate(251.326354, 257.918978)"><g><path d="M 9.238281 0 C 12.429688 -0.503906 22.230469 -1.121094 24.300781 -1.398438 L 25.980469 -2.351562 L 27.492188 -6.160156 L 27.382812 -9.183594 C 27.101562 -15.789062 26.988281 -17.695312 26.039062 -24.527344 L 23.964844 -27.886719 C 23.628906 -28.445312 23.292969 -28.949219 23.015625 -29.507812 L 18.757812 -31.691406 C 14.222656 -31.46875 10.808594 -30.910156 5.765625 -30.40625 L 2.632812 -27.4375 L 1.679688 -24.359375 L 2.632812 -5.765625 L 3.917969 -2.742188 Z M 10.472656 -7.28125 C 10.414062 -7.390625 10.414062 -7.503906 10.359375 -7.617188 C 9.96875 -8.847656 9.464844 -17.246094 9.40625 -18.535156 L 9.519531 -21.726562 L 9.574219 -21.78125 L 17.078125 -23.855469 C 17.078125 -23.796875 18.199219 -22.453125 18.199219 -22.398438 L 18.199219 -22.230469 C 18.140625 -20.71875 18.421875 -16.460938 19.039062 -9.6875 L 19.148438 -8.511719 L 16.742188 -8.0625 L 14.054688 -7.671875 Z M 10.472656 -7.28125 "/></g></g></g><g fill="#7c2714" fill-opacity="1"><g transform="translate(280.498292, 257.918978)"><g><path d="M 9.238281 0 C 12.429688 -0.503906 22.230469 -1.121094 24.300781 -1.398438 L 25.980469 -2.351562 L 27.492188 -6.160156 L 27.382812 -9.183594 C 27.101562 -15.789062 26.988281 -17.695312 26.039062 -24.527344 L 23.964844 -27.886719 C 23.628906 -28.445312 23.292969 -28.949219 23.015625 -29.507812 L 18.757812 -31.691406 C 14.222656 -31.46875 10.808594 -30.910156 5.765625 -30.40625 L 2.632812 -27.4375 L 1.679688 -24.359375 L 2.632812 -5.765625 L 3.917969 -2.742188 Z M 10.472656 -7.28125 C 10.414062 -7.390625 10.414062 -7.503906 10.359375 -7.617188 C 9.96875 -8.847656 9.464844 -17.246094 9.40625 -18.535156 L 9.519531 -21.726562 L 9.574219 -21.78125 L 17.078125 -23.855469 C 17.078125 -23.796875 18.199219 -22.453125 18.199219 -22.398438 L 18.199219 -22.230469 C 18.140625 -20.71875 18.421875 -16.460938 19.039062 -9.6875 L 19.148438 -8.511719 L 16.742188 -8.0625 L 14.054688 -7.671875 Z M 10.472656 -7.28125 "/></g></g></g><g fill="#7c2714" fill-opacity="1"><g transform="translate(118.728594, 282.752326)"><g><path d="M 1.5625 0 C 1.457031 0 1.367188 -0.0351562 1.296875 -0.109375 C 1.222656 -0.179688 1.1875 -0.28125 1.1875 -0.40625 L 1.1875 -10.796875 C 1.1875 -10.910156 1.222656 -11.003906 1.296875 -11.078125 C 1.367188 -11.160156 1.457031 -11.203125 1.5625 -11.203125 L 8.828125 -11.203125 C 8.953125 -11.203125 9.050781 -11.160156 9.125 -11.078125 C 9.195312 -11.003906 9.234375 -10.910156 9.234375 -10.796875 L 9.234375 -9.515625 C 9.234375 -9.398438 9.195312 -9.304688 9.125 -9.234375 C 9.050781 -9.160156 8.953125 -9.125 8.828125 -9.125 L 3.640625 -9.125 L 3.640625 -6.625 L 8.484375 -6.625 C 8.597656 -6.625 8.691406 -6.585938 8.765625 -6.515625 C 8.835938 -6.441406 8.875 -6.34375 8.875 -6.21875 L 8.875 -5.046875 C 8.875 -4.929688 8.835938 -4.832031 8.765625 -4.75 C 8.691406 -4.675781 8.597656 -4.640625 8.484375 -4.640625 L 3.640625 -4.640625 L 3.640625 -2.078125 L 8.953125 -2.078125 C 9.078125 -2.078125 9.175781 -2.039062 9.25 -1.96875 C 9.320312 -1.894531 9.359375 -1.800781 9.359375 -1.6875 L 9.359375 -0.40625 C 9.359375 -0.28125 9.320312 -0.179688 9.25 -0.109375 C 9.175781 -0.0351562 9.078125 0 8.953125 0 Z M 1.5625 0 "/></g></g></g><g fill="#7c2714" fill-opacity="1"><g transform="translate(137.622167, 282.752326)"><g><path d="M 5.21875 0.15625 C 4.195312 0.15625 3.335938 0.0078125 2.640625 -0.28125 C 1.953125 -0.582031 1.429688 -0.972656 1.078125 -1.453125 C 0.734375 -1.929688 0.550781 -2.441406 0.53125 -2.984375 C 0.53125 -3.085938 0.5625 -3.171875 0.625 -3.234375 C 0.6875 -3.296875 0.765625 -3.328125 0.859375 -3.328125 L 2.59375 -3.328125 C 2.726562 -3.328125 2.832031 -3.300781 2.90625 -3.25 C 2.988281 -3.195312 3.0625 -3.128906 3.125 -3.046875 C 3.195312 -2.847656 3.316406 -2.660156 3.484375 -2.484375 C 3.648438 -2.316406 3.875 -2.179688 4.15625 -2.078125 C 4.4375 -1.972656 4.789062 -1.921875 5.21875 -1.921875 C 5.90625 -1.921875 6.421875 -2.03125 6.765625 -2.25 C 7.117188 -2.476562 7.296875 -2.785156 7.296875 -3.171875 C 7.296875 -3.429688 7.203125 -3.644531 7.015625 -3.8125 C 6.828125 -3.988281 6.53125 -4.144531 6.125 -4.28125 C 5.726562 -4.425781 5.203125 -4.570312 4.546875 -4.71875 C 3.742188 -4.894531 3.0625 -5.117188 2.5 -5.390625 C 1.9375 -5.671875 1.515625 -6.023438 1.234375 -6.453125 C 0.953125 -6.890625 0.8125 -7.425781 0.8125 -8.0625 C 0.8125 -8.707031 0.988281 -9.273438 1.34375 -9.765625 C 1.695312 -10.265625 2.191406 -10.65625 2.828125 -10.9375 C 3.472656 -11.21875 4.238281 -11.359375 5.125 -11.359375 C 5.832031 -11.359375 6.460938 -11.257812 7.015625 -11.0625 C 7.566406 -10.875 8.023438 -10.625 8.390625 -10.3125 C 8.753906 -10.007812 9.03125 -9.679688 9.21875 -9.328125 C 9.414062 -8.972656 9.519531 -8.628906 9.53125 -8.296875 C 9.53125 -8.203125 9.5 -8.117188 9.4375 -8.046875 C 9.382812 -7.984375 9.304688 -7.953125 9.203125 -7.953125 L 7.40625 -7.953125 C 7.300781 -7.953125 7.203125 -7.972656 7.109375 -8.015625 C 7.023438 -8.054688 6.953125 -8.128906 6.890625 -8.234375 C 6.835938 -8.523438 6.65625 -8.769531 6.34375 -8.96875 C 6.03125 -9.175781 5.625 -9.28125 5.125 -9.28125 C 4.601562 -9.28125 4.1875 -9.1875 3.875 -9 C 3.570312 -8.8125 3.421875 -8.519531 3.421875 -8.125 C 3.421875 -7.875 3.5 -7.660156 3.65625 -7.484375 C 3.820312 -7.304688 4.082031 -7.148438 4.4375 -7.015625 C 4.800781 -6.878906 5.296875 -6.738281 5.921875 -6.59375 C 6.847656 -6.394531 7.601562 -6.160156 8.1875 -5.890625 C 8.78125 -5.617188 9.210938 -5.269531 9.484375 -4.84375 C 9.765625 -4.425781 9.90625 -3.898438 9.90625 -3.265625 C 9.90625 -2.546875 9.707031 -1.929688 9.3125 -1.421875 C 8.914062 -0.910156 8.363281 -0.519531 7.65625 -0.25 C 6.957031 0.0195312 6.144531 0.15625 5.21875 0.15625 Z M 5.21875 0.15625 "/></g></g></g><g fill="#7c2714" fill-opacity="1"><g transform="translate(156.851659, 282.752326)"><g><path d="M 4.046875 0 C 3.929688 0 3.832031 -0.0351562 3.75 -0.109375 C 3.675781 -0.179688 3.640625 -0.28125 3.640625 -0.40625 L 3.640625 -8.953125 L 0.734375 -8.953125 C 0.628906 -8.953125 0.539062 -8.988281 0.46875 -9.0625 C 0.394531 -9.144531 0.359375 -9.242188 0.359375 -9.359375 L 0.359375 -10.796875 C 0.359375 -10.910156 0.394531 -11.003906 0.46875 -11.078125 C 0.539062 -11.160156 0.628906 -11.203125 0.734375 -11.203125 L 9.125 -11.203125 C 9.238281 -11.203125 9.332031 -11.160156 9.40625 -11.078125 C 9.476562 -11.003906 9.515625 -10.910156 9.515625 -10.796875 L 9.515625 -9.359375 C 9.515625 -9.242188 9.476562 -9.144531 9.40625 -9.0625 C 9.332031 -8.988281 9.238281 -8.953125 9.125 -8.953125 L 6.21875 -8.953125 L 6.21875 -0.40625 C 6.21875 -0.28125 6.179688 -0.179688 6.109375 -0.109375 C 6.035156 -0.0351562 5.941406 0 5.828125 0 Z M 4.046875 0 "/></g></g></g><g fill="#7c2714" fill-opacity="1"><g transform="translate(175.52128, 282.752326)"><g><path d="M 1.3125 0 C 1.195312 0 1.097656 -0.0351562 1.015625 -0.109375 C 0.941406 -0.179688 0.90625 -0.28125 0.90625 -0.40625 L 0.90625 -2.203125 C 0.90625 -2.316406 0.941406 -2.410156 1.015625 -2.484375 C 1.097656 -2.566406 1.195312 -2.609375 1.3125 -2.609375 L 3.125 -2.609375 C 3.226562 -2.609375 3.316406 -2.566406 3.390625 -2.484375 C 3.472656 -2.410156 3.515625 -2.316406 3.515625 -2.203125 L 3.515625 -0.40625 C 3.515625 -0.28125 3.472656 -0.179688 3.390625 -0.109375 C 3.316406 -0.0351562 3.226562 0 3.125 0 Z M 1.3125 0 "/></g></g></g><g fill="#7c2714" fill-opacity="1"><g transform="translate(188.736219, 282.752326)"><g><path d="M 1.09375 0 C 0.96875 0 0.867188 -0.0351562 0.796875 -0.109375 C 0.722656 -0.179688 0.6875 -0.28125 0.6875 -0.40625 L 0.6875 -1.359375 C 0.6875 -1.441406 0.707031 -1.554688 0.75 -1.703125 C 0.800781 -1.859375 0.914062 -2.003906 1.09375 -2.140625 L 3.1875 -4.203125 C 3.96875 -4.804688 4.601562 -5.316406 5.09375 -5.734375 C 5.582031 -6.160156 5.941406 -6.539062 6.171875 -6.875 C 6.410156 -7.21875 6.53125 -7.550781 6.53125 -7.875 C 6.53125 -8.289062 6.414062 -8.628906 6.1875 -8.890625 C 5.957031 -9.160156 5.59375 -9.296875 5.09375 -9.296875 C 4.75 -9.296875 4.457031 -9.222656 4.21875 -9.078125 C 3.988281 -8.929688 3.8125 -8.738281 3.6875 -8.5 C 3.5625 -8.269531 3.472656 -8.023438 3.421875 -7.765625 C 3.390625 -7.617188 3.328125 -7.519531 3.234375 -7.46875 C 3.140625 -7.414062 3.03125 -7.390625 2.90625 -7.390625 L 1.21875 -7.390625 C 1.113281 -7.390625 1.023438 -7.421875 0.953125 -7.484375 C 0.890625 -7.546875 0.859375 -7.628906 0.859375 -7.734375 C 0.867188 -8.222656 0.972656 -8.6875 1.171875 -9.125 C 1.367188 -9.5625 1.648438 -9.945312 2.015625 -10.28125 C 2.378906 -10.625 2.816406 -10.894531 3.328125 -11.09375 C 3.835938 -11.289062 4.421875 -11.390625 5.078125 -11.390625 C 5.972656 -11.390625 6.722656 -11.242188 7.328125 -10.953125 C 7.929688 -10.660156 8.390625 -10.253906 8.703125 -9.734375 C 9.015625 -9.222656 9.171875 -8.632812 9.171875 -7.96875 C 9.171875 -7.457031 9.066406 -6.984375 8.859375 -6.546875 C 8.648438 -6.109375 8.347656 -5.6875 7.953125 -5.28125 C 7.566406 -4.882812 7.097656 -4.472656 6.546875 -4.046875 L 4.671875 -2.15625 L 9.015625 -2.15625 C 9.128906 -2.15625 9.222656 -2.117188 9.296875 -2.046875 C 9.367188 -1.972656 9.40625 -1.878906 9.40625 -1.765625 L 9.40625 -0.40625 C 9.40625 -0.28125 9.367188 -0.179688 9.296875 -0.109375 C 9.222656 -0.0351562 9.128906 0 9.015625 0 Z M 1.09375 0 "/></g></g></g><g fill="#7c2714" fill-opacity="1"><g transform="translate(207.67778, 282.752326)"><g><path d="M 5.34375 0.15625 C 4.570312 0.15625 3.910156 0.046875 3.359375 -0.171875 C 2.816406 -0.390625 2.363281 -0.691406 2 -1.078125 C 1.644531 -1.460938 1.378906 -1.914062 1.203125 -2.4375 C 1.023438 -2.957031 0.921875 -3.507812 0.890625 -4.09375 C 0.878906 -4.382812 0.867188 -4.707031 0.859375 -5.0625 C 0.859375 -5.414062 0.859375 -5.773438 0.859375 -6.140625 C 0.867188 -6.503906 0.878906 -6.835938 0.890625 -7.140625 C 0.910156 -7.722656 1.015625 -8.269531 1.203125 -8.78125 C 1.390625 -9.289062 1.664062 -9.738281 2.03125 -10.125 C 2.394531 -10.507812 2.847656 -10.8125 3.390625 -11.03125 C 3.941406 -11.25 4.59375 -11.359375 5.34375 -11.359375 C 6.09375 -11.359375 6.738281 -11.25 7.28125 -11.03125 C 7.820312 -10.8125 8.273438 -10.507812 8.640625 -10.125 C 9.003906 -9.738281 9.28125 -9.289062 9.46875 -8.78125 C 9.65625 -8.269531 9.765625 -7.722656 9.796875 -7.140625 C 9.804688 -6.835938 9.8125 -6.503906 9.8125 -6.140625 C 9.820312 -5.773438 9.820312 -5.414062 9.8125 -5.0625 C 9.8125 -4.707031 9.804688 -4.382812 9.796875 -4.09375 C 9.765625 -3.507812 9.65625 -2.957031 9.46875 -2.4375 C 9.289062 -1.914062 9.019531 -1.460938 8.65625 -1.078125 C 8.300781 -0.691406 7.847656 -0.390625 7.296875 -0.171875 C 6.753906 0.046875 6.101562 0.15625 5.34375 0.15625 Z M 5.34375 -1.921875 C 5.957031 -1.921875 6.410156 -2.125 6.703125 -2.53125 C 6.992188 -2.9375 7.144531 -3.484375 7.15625 -4.171875 C 7.175781 -4.484375 7.1875 -4.800781 7.1875 -5.125 C 7.1875 -5.457031 7.1875 -5.789062 7.1875 -6.125 C 7.1875 -6.457031 7.175781 -6.769531 7.15625 -7.0625 C 7.144531 -7.71875 6.992188 -8.253906 6.703125 -8.671875 C 6.410156 -9.085938 5.957031 -9.296875 5.34375 -9.296875 C 4.726562 -9.296875 4.273438 -9.085938 3.984375 -8.671875 C 3.691406 -8.253906 3.535156 -7.71875 3.515625 -7.0625 C 3.515625 -6.769531 3.507812 -6.457031 3.5 -6.125 C 3.5 -5.789062 3.5 -5.457031 3.5 -5.125 C 3.507812 -4.800781 3.515625 -4.484375 3.515625 -4.171875 C 3.535156 -3.484375 3.691406 -2.9375 3.984375 -2.53125 C 4.285156 -2.125 4.738281 -1.921875 5.34375 -1.921875 Z M 5.34375 -1.921875 "/></g></g></g><g fill="#7c2714" fill-opacity="1"><g transform="translate(227.179209, 282.752326)"><g><path d="M 1.09375 0 C 0.96875 0 0.867188 -0.0351562 0.796875 -0.109375 C 0.722656 -0.179688 0.6875 -0.28125 0.6875 -0.40625 L 0.6875 -1.359375 C 0.6875 -1.441406 0.707031 -1.554688 0.75 -1.703125 C 0.800781 -1.859375 0.914062 -2.003906 1.09375 -2.140625 L 3.1875 -4.203125 C 3.96875 -4.804688 4.601562 -5.316406 5.09375 -5.734375 C 5.582031 -6.160156 5.941406 -6.539062 6.171875 -6.875 C 6.410156 -7.21875 6.53125 -7.550781 6.53125 -7.875 C 6.53125 -8.289062 6.414062 -8.628906 6.1875 -8.890625 C 5.957031 -9.160156 5.59375 -9.296875 5.09375 -9.296875 C 4.75 -9.296875 4.457031 -9.222656 4.21875 -9.078125 C 3.988281 -8.929688 3.8125 -8.738281 3.6875 -8.5 C 3.5625 -8.269531 3.472656 -8.023438 3.421875 -7.765625 C 3.390625 -7.617188 3.328125 -7.519531 3.234375 -7.46875 C 3.140625 -7.414062 3.03125 -7.390625 2.90625 -7.390625 L 1.21875 -7.390625 C 1.113281 -7.390625 1.023438 -7.421875 0.953125 -7.484375 C 0.890625 -7.546875 0.859375 -7.628906 0.859375 -7.734375 C 0.867188 -8.222656 0.972656 -8.6875 1.171875 -9.125 C 1.367188 -9.5625 1.648438 -9.945312 2.015625 -10.28125 C 2.378906 -10.625 2.816406 -10.894531 3.328125 -11.09375 C 3.835938 -11.289062 4.421875 -11.390625 5.078125 -11.390625 C 5.972656 -11.390625 6.722656 -11.242188 7.328125 -10.953125 C 7.929688 -10.660156 8.390625 -10.253906 8.703125 -9.734375 C 9.015625 -9.222656 9.171875 -8.632812 9.171875 -7.96875 C 9.171875 -7.457031 9.066406 -6.984375 8.859375 -6.546875 C 8.648438 -6.109375 8.347656 -5.6875 7.953125 -5.28125 C 7.566406 -4.882812 7.097656 -4.472656 6.546875 -4.046875 L 4.671875 -2.15625 L 9.015625 -2.15625 C 9.128906 -2.15625 9.222656 -2.117188 9.296875 -2.046875 C 9.367188 -1.972656 9.40625 -1.878906 9.40625 -1.765625 L 9.40625 -0.40625 C 9.40625 -0.28125 9.367188 -0.179688 9.296875 -0.109375 C 9.222656 -0.0351562 9.128906 0 9.015625 0 Z M 1.09375 0 "/></g></g></g><g fill="#7c2714" fill-opacity="1"><g transform="translate(246.120771, 282.752326)"><g><path d="M 1.09375 0 C 0.96875 0 0.867188 -0.0351562 0.796875 -0.109375 C 0.722656 -0.179688 0.6875 -0.28125 0.6875 -0.40625 L 0.6875 -1.359375 C 0.6875 -1.441406 0.707031 -1.554688 0.75 -1.703125 C 0.800781 -1.859375 0.914062 -2.003906 1.09375 -2.140625 L 3.1875 -4.203125 C 3.96875 -4.804688 4.601562 -5.316406 5.09375 -5.734375 C 5.582031 -6.160156 5.941406 -6.539062 6.171875 -6.875 C 6.410156 -7.21875 6.53125 -7.550781 6.53125 -7.875 C 6.53125 -8.289062 6.414062 -8.628906 6.1875 -8.890625 C 5.957031 -9.160156 5.59375 -9.296875 5.09375 -9.296875 C 4.75 -9.296875 4.457031 -9.222656 4.21875 -9.078125 C 3.988281 -8.929688 3.8125 -8.738281 3.6875 -8.5 C 3.5625 -8.269531 3.472656 -8.023438 3.421875 -7.765625 C 3.390625 -7.617188 3.328125 -7.519531 3.234375 -7.46875 C 3.140625 -7.414062 3.03125 -7.390625 2.90625 -7.390625 L 1.21875 -7.390625 C 1.113281 -7.390625 1.023438 -7.421875 0.953125 -7.484375 C 0.890625 -7.546875 0.859375 -7.628906 0.859375 -7.734375 C 0.867188 -8.222656 0.972656 -8.6875 1.171875 -9.125 C 1.367188 -9.5625 1.648438 -9.945312 2.015625 -10.28125 C 2.378906 -10.625 2.816406 -10.894531 3.328125 -11.09375 C 3.835938 -11.289062 4.421875 -11.390625 5.078125 -11.390625 C 5.972656 -11.390625 6.722656 -11.242188 7.328125 -10.953125 C 7.929688 -10.660156 8.390625 -10.253906 8.703125 -9.734375 C 9.015625 -9.222656 9.171875 -8.632812 9.171875 -7.96875 C 9.171875 -7.457031 9.066406 -6.984375 8.859375 -6.546875 C 8.648438 -6.109375 8.347656 -5.6875 7.953125 -5.28125 C 7.566406 -4.882812 7.097656 -4.472656 6.546875 -4.046875 L 4.671875 -2.15625 L 9.015625 -2.15625 C 9.128906 -2.15625 9.222656 -2.117188 9.296875 -2.046875 C 9.367188 -1.972656 9.40625 -1.878906 9.40625 -1.765625 L 9.40625 -0.40625 C 9.40625 -0.28125 9.367188 -0.179688 9.296875 -0.109375 C 9.222656 -0.0351562 9.128906 0 9.015625 0 Z M 1.09375 0 "/></g></g></g></svg>